<svg version="1.1" id="Layer_1" xmlns="http://www.w3.org/2000/svg" xmlns:xlink="http://www.w3.org/1999/xlink" x="0px" y="0px"
	 width="100%" viewBox="0 0 1024 816" enable-background="new 0 0 1024 816" xml:space="preserve">
<path fill="#000000" opacity="1.000000" stroke="none" 
	d="
M411.082672,369.786346 
	C397.993011,367.533997 389.147034,373.959717 381.715851,383.504944 
	C378.524384,379.608643 378.738770,375.443939 378.350708,371.601807 
	C376.794189,356.190186 381.785339,343.367157 394.375397,333.990173 
	C399.106934,330.466095 399.734467,330.925903 402.762970,335.780426 
	C405.150360,339.607147 408.507050,341.988251 413.286377,340.025208 
	C419.309967,337.551025 425.044342,338.843018 431.275238,339.760223 
	C442.364746,341.392548 452.889618,344.564056 463.481476,347.849609 
	C467.899628,349.220123 471.644897,351.491730 475.080780,354.484528 
	C479.097809,357.983459 483.096375,361.494781 488.103821,363.637451 
	C498.249634,367.978821 507.860504,365.846008 515.794006,359.379761 
	C522.494873,353.918121 528.258484,354.005829 534.983643,358.047699 
	C535.957275,358.632843 537.086609,358.958893 538.531311,358.643616 
	C532.597473,355.703491 526.739563,352.595276 520.708435,349.870422 
	C514.645325,347.131104 508.484131,344.567444 502.228943,342.305634 
	C495.813904,339.986084 489.206665,338.268005 482.533783,336.744690 
	C476.187317,335.295898 469.397369,335.179932 462.985382,331.413086 
	C466.263580,327.182159 470.532104,325.570557 474.592133,324.110870 
	C491.511505,318.027954 508.771454,318.003052 526.289368,321.403290 
	C544.184814,324.876801 560.116089,333.328552 576.613403,340.388885 
	C582.890869,343.075470 589.238892,345.596649 595.530762,348.250092 
	C596.846130,348.804779 598.575073,348.756561 599.270691,350.541412 
	C598.370483,352.824005 596.548157,351.695282 595.078369,351.566193 
	C575.486938,349.845428 556.988525,343.824524 538.570557,337.368439 
	C520.888489,331.170349 502.826019,326.737183 483.879181,327.260468 
	C481.592804,327.323608 479.229919,327.057159 476.295746,328.865997 
	C486.160461,328.807343 495.157837,328.576904 504.123505,330.308350 
	C516.598877,332.717651 528.646484,336.393829 540.563660,340.680450 
	C560.466553,347.839630 580.380432,355.556641 601.945557,354.909882 
	C613.505310,354.563202 623.751343,358.702087 634.476440,361.408203 
	C648.882996,365.043152 663.393494,367.619873 679.563965,364.931671 
	C676.819031,371.132324 672.637024,374.577393 668.439331,377.871368 
	C649.928040,392.397064 628.911560,394.193420 606.803894,389.445770 
	C592.046936,386.276733 578.285461,380.361725 565.004089,373.284637 
	C564.296936,372.907776 563.520447,372.661224 562.332031,372.170715 
	C564.950928,375.043823 570.794373,378.790344 575.734314,380.600830 
	C578.446960,381.595032 580.738708,383.050903 582.966370,384.883850 
	C604.180359,402.339294 624.170959,421.300049 646.868286,436.931946 
	C662.755005,447.873230 679.496460,456.984528 698.568970,461.140564 
	C700.066162,461.466827 702.346069,461.301270 702.274109,463.636353 
	C702.198975,466.072876 699.988953,466.031799 698.192505,466.405731 
	C678.866150,470.428680 660.050842,467.253326 641.484924,462.042297 
	C620.037903,456.022644 599.912659,446.875366 580.908997,435.249115 
	C579.861633,434.608398 578.847290,433.582825 576.738892,433.977600 
	C614.046692,458.287292 652.924622,475.721527 697.881531,471.834198 
	C699.368896,474.154144 698.428467,475.520905 697.905762,476.860016 
	C693.901062,487.117950 688.912354,496.882324 683.418884,506.427063 
	C681.191772,510.296661 678.260254,509.470306 675.251953,508.565002 
	C665.731689,505.699860 655.798584,504.399780 646.393982,500.940308 
	C655.850342,507.376953 666.995361,509.918976 677.490356,514.182373 
	C677.256958,515.220947 677.286438,515.958740 676.952637,516.449280 
	C666.863586,531.275085 654.853149,544.395020 641.280518,556.069885 
	C636.541077,560.146667 635.944946,560.002319 632.595093,554.753906 
	C618.857727,533.231079 603.550903,512.863953 587.203674,493.283844 
	C573.213196,476.526489 558.681641,460.245239 542.699036,445.325317 
	C541.544922,444.247955 540.292603,443.275818 538.437439,442.828674 
	C540.513672,445.969604 542.503052,449.172150 544.679688,452.241852 
	C564.280762,479.885345 581.355408,509.016602 596.634521,539.255676 
	C601.896118,549.669006 606.494873,560.367432 611.592529,570.839722 
	C613.259521,574.264282 612.820862,576.208252 609.337341,577.975891 
	C603.104126,581.138611 596.947632,584.428894 590.517029,587.204895 
	C587.277710,588.603210 585.675232,588.539429 584.384521,584.619446 
	C579.029907,568.356934 572.689209,552.454285 565.452759,536.870911 
	C568.235840,545.397583 571.086914,553.902893 573.781555,562.457520 
	C576.132324,569.920349 578.195923,577.474548 580.603699,584.918091 
	C581.874573,588.846680 581.146362,591.125000 576.872437,592.379761 
	C569.844299,594.442993 562.879028,596.694824 555.742188,598.398926 
	C552.419678,599.192139 551.038696,598.583618 550.487366,594.867981 
	C543.902527,550.492249 527.552490,509.490326 506.373474,470.318451 
	C498.437103,455.639587 492.471619,440.077057 484.647705,425.382568 
	C474.400787,406.137299 462.111877,388.455505 445.585510,373.989685 
	C444.834808,373.332550 444.058868,372.700226 443.254547,372.111115 
	C443.035339,371.950531 442.669678,371.989868 441.202362,371.732361 
	C456.694427,385.188354 466.931854,401.329559 476.689575,418.894714 
	C473.111176,418.800110 472.486176,416.769257 471.361755,415.257843 
	C459.334564,399.091187 446.029724,384.354950 427.595367,375.112091 
	C422.435059,372.524750 416.805908,371.791931 411.082672,369.786346 
z"/>
<path fill="#000000" opacity="1.000000" stroke="none" 
	d="
M471.134308,599.307251 
	C469.427979,596.549255 471.893890,595.991882 473.130585,595.043152 
	C483.328186,587.219971 493.009613,578.832153 501.631256,569.278503 
	C503.272736,567.459656 505.267334,565.829834 506.276062,562.191406 
	C500.456635,567.077576 495.426300,571.402039 490.286346,575.592163 
	C483.434052,581.178162 476.185089,586.197693 468.462891,590.528809 
	C460.846039,594.800903 452.930145,595.131592 444.813629,592.362061 
	C423.325226,585.029846 403.756653,574.169250 385.938293,560.124573 
	C384.835449,559.255310 384.850006,559.236816 383.379852,556.074097 
	C400.972839,554.413269 418.566101,553.780579 435.323608,547.967041 
	C422.342010,549.765381 409.301483,549.944336 396.237793,550.344116 
	C378.677612,550.881592 365.565369,544.085510 355.209015,530.099670 
	C346.261475,518.016357 337.697571,505.771729 331.008728,492.288910 
	C329.847931,489.949097 328.281067,487.714874 328.185913,484.945099 
	C330.031494,483.163330 331.713806,484.610168 333.300354,485.132172 
	C388.818787,503.399200 441.579895,497.758972 491.366516,466.824768 
	C494.784607,464.700989 496.667358,464.584320 498.738403,468.436462 
	C517.015259,502.431152 532.600830,537.485352 541.254944,575.294128 
	C542.887817,582.427979 544.043762,589.658569 544.386597,596.995972 
	C544.489380,599.195923 544.256470,600.859009 541.483459,601.247253 
	C518.705017,604.436218 495.994995,603.986450 473.335571,600.159241 
	C472.690979,600.050354 472.083130,599.723755 471.134308,599.307251 
z"/>
<path fill="#000000" opacity="1.000000" stroke="none" 
	d="
M570.877563,211.957230 
	C580.481689,214.990448 589.437378,218.568741 598.152588,222.761353 
	C607.286682,227.155441 613.554749,233.945450 617.017090,243.630280 
	C622.056396,257.725952 625.858643,272.112946 628.514282,286.842743 
	C629.215881,270.259003 625.853394,254.238419 621.584351,238.439651 
	C624.272949,237.059052 625.531189,238.845978 626.873901,239.806763 
	C644.895142,252.701370 660.509216,268.038879 673.402161,286.088074 
	C679.252808,294.278564 681.041443,303.231445 678.397339,313.076599 
	C674.622437,327.132507 669.133789,340.504120 662.463989,353.392670 
	C658.982971,360.119263 658.632874,359.991119 651.081787,358.695526 
	C627.436462,354.638611 605.400391,345.711151 583.199036,337.069031 
	C575.338684,334.009308 573.330444,330.047089 573.618042,321.802704 
	C575.056763,280.556427 563.744812,242.938354 539.482361,209.372391 
	C538.898499,208.564606 538.347778,207.727707 537.854858,206.862625 
	C537.714600,206.616440 537.833374,206.222702 537.833374,205.136688 
	C549.129944,205.534821 559.795105,208.788239 570.877563,211.957230 
z"/>
<path fill="#000000" opacity="1.000000" stroke="none" 
	d="
M504.918945,245.107605 
	C517.302246,259.993103 527.451904,275.750580 533.997009,294.774597 
	C483.997742,263.609039 430.572754,252.832138 373.468903,258.600830 
	C373.017883,256.366760 374.743744,255.529587 375.898071,254.485886 
	C398.890961,233.696564 425.336853,219.140228 455.129425,210.603088 
	C461.239563,208.852203 466.532532,210.129883 471.542755,213.903183 
	C483.688416,223.050278 494.770721,233.312897 504.918945,245.107605 
z"/>
<path fill="#000000" opacity="1.000000" stroke="none" 
	d="
M314.067871,362.295654 
	C318.080139,344.262634 323.407471,327.176971 333.174500,311.485443 
	C337.091034,339.702240 346.757874,365.718048 360.493134,390.163116 
	C374.132721,414.437836 389.716522,437.334167 412.319031,454.457642 
	C410.717407,456.788818 408.728790,456.054291 407.059479,455.848907 
	C373.146027,451.675629 343.233887,437.934479 316.210083,417.479797 
	C311.697540,414.064209 309.970459,409.006256 309.994446,403.362488 
	C310.052643,389.685822 311.432068,376.140778 314.067871,362.295654 
z"/>
<path fill="#000000" opacity="1.000000" stroke="none" 
	d="
M704.201477,405.075195 
	C692.706665,418.323395 678.957275,428.205292 664.461792,437.180115 
	C661.499329,439.014343 659.104858,437.952179 656.619385,436.352142 
	C644.131897,428.313416 632.404541,419.263977 621.089172,409.665894 
	C617.531982,406.648438 613.963867,403.642883 610.452026,400.573273 
	C609.266418,399.537048 607.478699,398.890442 607.600525,395.993103 
	C646.574097,402.467133 677.007385,391.208923 694.398132,352.872223 
	C683.264343,355.147186 673.686646,362.928345 660.535461,359.140717 
	C671.299255,343.469177 679.828003,327.114136 686.202881,309.428802 
	C689.580139,310.802277 690.423584,313.632660 691.544556,316.023071 
	C700.725342,335.600555 706.877930,356.094971 709.800110,377.536987 
	C711.120789,387.228271 710.286743,396.503265 704.201477,405.075195 
z"/>
<path fill="#000000" opacity="1.000000" stroke="none" 
	d="
M696.948853,233.008759 
	C691.178711,238.068909 685.577759,242.798157 680.199219,247.768127 
	C677.769714,250.013123 676.160645,249.728119 673.993225,247.420242 
	C666.401672,239.336945 666.382080,239.299072 674.596008,232.204483 
	C686.188232,222.191940 697.815002,212.214844 709.204346,201.974915 
	C712.059875,199.407547 713.449402,199.839249 716.065613,202.294373 
	C721.220154,207.131607 722.934875,211.897644 720.246216,219.010605 
	C716.801514,228.123581 714.746338,237.761810 711.755981,248.366974 
	C717.951721,244.845734 721.757629,240.253784 726.347290,236.689499 
	C727.526367,235.773865 728.557312,234.667313 729.653992,233.645996 
	C737.683044,226.168533 738.489197,226.318420 745.178589,235.304596 
	C746.808289,237.493805 746.911499,238.984680 744.836548,240.799957 
	C731.430481,252.528168 718.052551,264.288666 704.703552,276.081726 
	C702.682190,277.867462 701.156250,277.773315 699.158630,275.873505 
	C694.000916,270.968170 691.220520,266.162506 694.307373,258.408447 
	C697.970154,249.208008 699.953857,239.339096 702.822998,229.202591 
	C700.075684,229.771027 698.717468,231.398514 696.948853,233.008759 
z"/>
<path fill="#000000" opacity="1.000000" stroke="none" 
	d="
M701.125061,603.875610 
	C701.475769,604.258789 701.589844,604.380188 701.704041,604.501404 
	C707.379150,610.521606 706.628357,613.914062 699.034729,617.417908 
	C696.722107,618.484924 695.639526,616.985168 694.346741,615.760010 
	C689.778992,611.431213 685.240234,607.071777 679.759583,601.834412 
	C682.415161,609.138184 684.594055,615.592224 687.131714,621.901917 
	C688.278931,624.754517 687.578979,626.519531 685.405396,628.390686 
	C683.140137,630.340759 681.185669,630.387268 678.689941,628.788940 
	C673.107056,625.213440 667.378723,621.865234 660.683105,617.801453 
	C662.557129,623.926514 666.340576,627.490051 669.054871,631.644958 
	C673.581177,638.573730 672.979187,641.049133 665.560547,644.919800 
	C663.518677,645.985229 662.437195,645.165039 661.416809,643.665466 
	C652.986572,631.276428 644.563171,618.882690 636.173340,606.466248 
	C635.731567,605.812378 635.332458,604.919434 635.389648,604.174316 
	C635.668335,600.537415 645.012817,595.736755 648.289978,597.379150 
	C655.110168,600.797058 661.276855,605.432373 668.819946,608.559387 
	C668.846863,604.292664 666.856323,600.961731 665.898682,597.399902 
	C665.122375,594.512512 663.957825,591.731567 663.032227,588.881836 
	C660.989502,582.593384 663.599426,577.456055 669.909607,574.994507 
	C672.232727,574.088318 673.294617,575.736450 674.536316,576.986084 
	C683.338257,585.844177 692.108276,594.734009 701.125061,603.875610 
z"/>
<path fill="#000000" opacity="1.000000" stroke="none" 
	d="
M375.161255,207.060669 
	C373.557495,206.551300 372.367249,205.836014 370.054718,206.436768 
	C370.054718,211.417587 369.803864,216.666916 370.129761,221.880173 
	C370.418579,226.500031 369.314209,229.889801 364.895966,232.091888 
	C361.550262,233.759415 358.896851,236.724716 355.203522,237.764038 
	C353.172455,236.041092 353.798004,233.909134 353.800995,232.013733 
	C353.815094,223.017654 353.756622,214.014923 354.097992,205.028763 
	C354.261627,200.721069 352.913757,198.331390 348.665924,196.930435 
	C341.873932,194.690430 335.269196,191.878769 328.604980,189.258621 
	C327.096130,188.665375 325.333466,188.462845 323.925934,186.291443 
	C327.799286,182.171188 332.437134,177.562500 337.795319,177.295013 
	C342.992554,177.035538 348.375488,180.494949 353.969147,182.421814 
	C355.528625,178.101395 354.797394,173.933228 354.702606,169.899719 
	C354.610443,165.978333 355.678436,163.176270 359.268921,161.314651 
	C362.757629,159.505768 365.502502,156.392883 369.304840,155.222580 
	C371.089142,156.652283 370.485107,158.385559 370.467773,160.001007 
	C370.381927,167.996841 370.433899,175.997070 370.166321,183.986664 
	C370.051270,187.421539 371.409515,188.999283 374.599823,190.078934 
	C383.746277,193.174210 392.787292,196.582520 401.853882,199.910950 
	C403.371948,200.468231 405.117615,200.654160 406.644684,202.551697 
	C404.050629,206.065430 399.748993,207.464294 396.747009,210.329559 
	C392.769165,214.126282 388.919373,212.547791 384.838898,210.763489 
	C381.791229,209.430771 378.626434,208.365829 375.161255,207.060669 
z"/>
<path fill="#000000" opacity="1.000000" stroke="none" 
	d="
M670.479248,176.491196 
	C667.200134,195.035873 663.996338,213.163147 660.712585,231.743027 
	C655.267822,230.392868 651.669189,227.426468 647.964355,224.784836 
	C646.003784,223.386887 646.639465,221.063934 647.381470,219.235840 
	C649.705017,213.511459 647.791077,209.778564 642.346436,207.395111 
	C640.985229,206.799225 639.609802,206.046280 638.516602,205.059906 
	C633.511353,200.543747 628.806702,200.187363 624.092529,205.529953 
	C622.322021,207.536514 620.083313,207.622772 617.798523,206.061844 
	C614.570496,203.856461 610.854553,202.300018 607.650024,198.749298 
	C613.619934,194.292236 619.117859,190.082794 624.724976,186.024292 
	C634.843506,178.700424 645.074646,171.531616 655.155701,164.157150 
	C658.286255,161.867111 660.875366,160.102661 664.856812,162.990082 
	C668.840332,165.879074 673.494873,167.867981 671.028198,174.133911 
	C670.786682,174.747604 670.708557,175.425644 670.479248,176.491196 
M652.240234,184.546967 
	C649.310120,186.553665 646.275696,188.442123 643.938293,191.484985 
	C646.288818,193.455750 648.315247,195.294373 651.550171,196.041260 
	C652.092041,191.978165 655.127563,188.566299 652.240234,184.546967 
z"/>
<path fill="#000000" opacity="1.000000" stroke="none" 
	d="
M519.619385,177.504974 
	C507.825867,168.738846 502.341217,157.505630 505.977661,143.333466 
	C509.071075,131.277405 519.265076,122.104630 533.749878,119.953621 
	C541.532959,118.797821 548.977966,120.517204 556.033508,124.022865 
	C559.709778,125.849449 561.265381,128.094147 558.268921,131.759048 
	C558.058960,132.015900 557.889465,132.307037 557.711670,132.588852 
	C553.634216,139.053543 553.661804,138.977509 546.582214,136.438507 
	C540.263489,134.172394 533.974915,134.394424 528.456543,138.409027 
	C523.287048,142.169846 520.431274,147.448883 521.760071,154.022415 
	C523.292419,161.602692 528.940674,166.618042 536.556702,167.642517 
	C540.219543,168.135223 543.920898,168.136276 547.382263,166.633026 
	C550.167664,165.423340 551.683655,166.476974 552.953979,168.927811 
	C557.806580,178.290085 556.737854,180.405975 546.333618,182.395447 
	C536.898010,184.199692 528.128296,182.645996 519.619385,177.504974 
z"/>
<path fill="#000000" opacity="1.000000" stroke="none" 
	d="
M441.659363,143.320740 
	C429.698547,143.531555 421.525238,150.233047 421.030609,159.825256 
	C420.697418,166.286453 423.432892,171.090363 428.885864,174.372269 
	C435.713135,178.481277 442.281677,176.763977 448.771667,173.360794 
	C451.050629,172.165802 452.473480,168.560150 455.284851,169.549011 
	C458.360962,170.630997 460.375549,173.686752 462.628571,176.130325 
	C464.290710,177.933075 464.320740,179.653778 462.518768,181.334427 
	C452.565430,190.617767 440.972778,194.470016 427.633881,190.930679 
	C415.537628,187.721069 407.289429,179.928909 405.091766,167.466278 
	C402.765289,154.273087 407.262909,143.126007 418.288361,135.134094 
	C425.998596,129.545258 434.742706,127.407654 444.241058,128.465439 
	C447.963654,128.880005 449.668945,130.586594 448.480408,134.502686 
	C448.000885,136.082642 447.665466,137.768021 447.638855,139.411484 
	C447.574249,143.399277 445.439026,144.173996 441.659363,143.320740 
z"/>
<path fill="#000000" opacity="1.000000" stroke="none" 
	d="
M729.195740,554.364624 
	C725.152466,554.369141 721.538147,554.369141 717.923828,554.369141 
	C717.787842,554.836548 717.651855,555.303955 717.515869,555.771301 
	C723.224670,559.280762 728.808472,563.019775 734.685669,566.219788 
	C738.672913,568.390808 739.469116,570.549500 736.903381,574.436890 
	C732.745728,580.736328 732.633850,580.940979 727.566772,577.779358 
	C715.853516,570.470764 704.197815,563.067444 692.393188,555.909668 
	C689.527710,554.172180 689.348755,552.544678 690.804749,549.841431 
	C693.549561,544.745605 697.047058,541.954651 703.434143,542.509399 
	C711.102783,543.175415 718.871887,542.648804 728.134033,541.467102 
	C721.157349,537.053589 715.542358,533.311035 709.732788,529.899719 
	C706.400146,527.942810 705.523743,525.830078 708.081848,522.763794 
	C710.332581,520.066040 710.935791,514.685608 716.833923,518.541809 
	C728.525146,526.185608 740.480835,533.428528 752.402039,540.714722 
	C755.390320,542.541199 755.401245,544.267273 753.822876,547.225159 
	C751.119324,552.291748 747.698120,555.100342 741.583191,554.355225 
	C737.655579,553.876587 733.614746,554.326416 729.195740,554.364624 
z"/>
<path fill="#000000" opacity="1.000000" stroke="none" 
	d="
M343.035522,570.972961 
	C331.313141,578.613831 320.644928,587.691162 309.239105,595.762146 
	C307.343079,597.103882 305.233948,600.244690 302.941437,597.506592 
	C300.382355,594.450134 295.751221,591.935181 297.661957,586.604797 
	C300.246277,579.395325 302.929993,572.221313 305.486908,565.002319 
	C306.010162,563.525024 307.300690,562.101440 306.048767,559.815735 
	C300.593079,562.705200 296.099792,566.867126 291.206299,570.415771 
	C285.770447,574.357727 280.320923,572.302551 278.794128,565.668396 
	C278.373474,563.840698 279.415619,562.846863 280.631134,561.919495 
	C292.148041,553.132629 303.674652,544.358582 315.200653,535.583679 
	C317.226654,534.041199 318.757294,534.116699 320.753693,536.151855 
	C325.044281,540.525574 326.464050,544.923767 323.810822,550.873474 
	C320.574524,558.130676 318.080109,565.718628 316.121918,573.944519 
	C321.468933,569.963135 326.762634,565.906799 332.192505,562.041870 
	C334.040405,560.726501 336.134155,557.406128 338.462646,560.046631 
	C340.931671,562.846497 345.644043,565.143860 343.173462,570.694458 
	C343.002625,571.002808 343.035522,570.972961 343.035522,570.972961 
z"/>
<path fill="#000000" opacity="1.000000" stroke="none" 
	d="
M413.498169,659.320557 
	C412.163605,645.994751 418.994629,634.341614 430.543091,629.700073 
	C440.227814,625.807617 452.886261,629.477356 459.659058,638.226868 
	C461.144073,640.145264 463.484100,642.389343 461.475281,644.806885 
	C459.377289,647.331604 456.181427,648.772949 452.929199,649.597412 
	C451.873535,649.865112 451.326172,648.656189 450.741119,647.843994 
	C446.189606,641.524963 442.750122,639.778992 437.778503,641.222534 
	C432.467010,642.764771 427.987946,648.537964 427.337585,654.680176 
	C426.369843,663.819824 432.900452,670.637146 440.785522,668.646790 
	C442.711761,668.160522 444.595123,667.407715 445.306580,665.128906 
	C444.358856,662.955750 442.182007,662.695801 440.358185,662.313293 
	C436.298706,661.462036 435.930389,659.285767 437.046265,655.751953 
	C438.142456,652.280151 439.580566,650.670959 443.491364,652.070251 
	C448.497070,653.861206 453.654877,655.235962 458.772034,656.703125 
	C461.587769,657.510437 462.304626,659.028687 461.567780,661.924011 
	C458.225708,675.056213 449.751984,681.776001 436.875427,681.237671 
	C424.972717,680.739929 415.671936,672.156433 413.498169,659.320557 
z"/>
<path fill="#000000" opacity="1.000000" stroke="none" 
	d="
M738.109009,486.129333 
	C733.960022,489.434723 731.999084,493.411743 733.648926,498.214020 
	C735.364685,503.208069 738.929871,506.705536 744.316772,507.716736 
	C753.673035,509.472931 759.509094,506.606262 761.141174,499.607361 
	C762.028687,495.801422 760.946106,492.792389 757.498291,490.747772 
	C755.440857,491.800049 755.318848,493.816101 754.827576,495.469025 
	C753.812195,498.886139 752.441956,500.572449 748.404663,499.044647 
	C744.549805,497.585907 742.936646,495.927856 744.717285,491.718018 
	C746.659180,487.126953 748.179199,482.349518 749.725830,477.602051 
	C750.716614,474.560944 752.330688,473.942200 755.387024,474.926849 
	C770.569275,479.818115 777.308899,492.700317 771.882507,506.821869 
	C766.694519,520.323059 750.399658,526.545654 736.391602,520.172729 
	C727.634949,516.188904 721.722229,509.575989 720.801392,499.754059 
	C719.849854,489.604279 723.420166,481.133331 732.012390,475.109741 
	C735.242188,472.845459 737.665649,472.383911 739.888428,476.666290 
	C743.249390,483.141388 743.458801,483.193909 738.109009,486.129333 
z"/>
<path fill="#000000" opacity="1.000000" stroke="none" 
	d="
M549.829285,635.459045 
	C556.708740,633.712646 563.094727,633.785522 569.157471,636.905457 
	C571.565491,638.144592 574.654663,639.091553 572.576782,643.148010 
	C569.223450,649.694275 568.105225,650.448547 563.456421,648.175598 
	C558.351685,645.679810 552.063171,646.896729 548.973572,650.978394 
	C544.848267,656.428223 545.523987,665.526428 550.448059,670.832947 
	C554.676819,675.390137 559.888733,676.164307 564.785034,672.910461 
	C566.760254,671.597717 568.478088,670.064514 568.398376,667.091736 
	C566.285583,665.582336 564.023865,666.461487 561.857178,666.966553 
	C558.584961,667.729370 557.122559,666.185486 556.843018,663.185852 
	C556.599121,660.568848 554.998840,657.377869 559.545105,656.577271 
	C565.277161,655.567932 570.980713,654.394897 576.691162,653.265015 
	C579.648499,652.679749 580.417175,654.591980 581.009521,656.862549 
	C584.319885,669.553162 579.725098,680.006714 568.554871,685.124451 
	C557.153992,690.347839 544.350220,686.799500 537.188416,676.431824 
	C526.907532,661.548828 532.826294,641.819580 549.829285,635.459045 
z"/>
<path fill="#000000" opacity="1.000000" stroke="none" 
	d="
M350.237793,640.824097 
	C347.508850,639.135681 347.720123,637.602234 349.834564,636.001587 
	C362.718781,626.248047 375.620911,616.517944 388.465363,606.712341 
	C392.323700,603.766785 394.538239,607.550537 397.349213,608.711426 
	C399.608612,609.644470 401.116119,611.157959 400.639496,614.121582 
	C398.129059,629.732300 395.728638,645.361023 393.367432,660.995178 
	C392.857086,664.374329 391.644379,665.224243 388.371185,663.572021 
	C383.071136,660.896790 378.725922,658.080200 381.560974,651.023987 
	C382.248230,649.313538 381.256927,647.833984 379.613800,646.874451 
	C376.166687,644.861572 372.745239,642.804382 369.328278,640.740540 
	C367.916504,639.887878 366.363373,639.480835 365.225769,640.834900 
	C360.349976,646.638672 355.483704,644.837158 350.237793,640.824097 
M383.366486,634.250793 
	C385.524841,631.910522 385.494934,629.128296 385.292084,625.814026 
	C382.259857,627.044312 380.237274,628.742126 378.592407,630.851074 
	C379.346588,633.053101 380.944611,633.788757 383.366486,634.250793 
z"/>
<path fill="#000000" opacity="1.000000" stroke="none" 
	d="
M646.420044,652.616760 
	C647.014709,653.602661 647.800415,654.447571 647.641113,655.037048 
	C646.672058,658.623169 636.078430,661.533447 633.754822,658.619019 
	C630.230774,654.198792 626.537109,653.948547 622.199402,656.895569 
	C619.018555,659.056580 613.572266,658.355774 613.214783,664.119141 
	C612.682495,672.699646 611.041687,674.404419 601.346802,676.316772 
	C599.970947,671.386047 600.503235,666.223816 600.095093,661.235596 
	C599.146423,649.643005 598.772766,638.004333 598.045898,626.391846 
	C597.852600,623.304443 598.799927,621.270935 601.840942,620.271423 
	C605.263245,619.146667 608.213379,616.151672 612.168701,620.041931 
	C623.315552,631.005371 634.814331,641.611023 646.420044,652.616760 
M617.991394,643.874817 
	C616.253723,641.690308 614.662598,639.329468 611.346008,638.074341 
	C611.854065,641.513245 612.272034,644.342407 612.763000,647.665222 
	C615.039673,646.650940 617.036560,646.466370 617.991394,643.874817 
z"/>
<path fill="#000000" opacity="1.000000" stroke="none" 
	d="
M300.789429,208.058472 
	C305.768463,207.969315 308.052307,211.861328 310.880096,214.606171 
	C312.531189,216.208817 310.097168,217.849625 309.066742,219.202179 
	C303.545959,226.448792 303.597137,226.329697 310.723724,232.240616 
	C319.419952,239.453415 327.927917,246.892822 336.598175,254.137482 
	C338.859955,256.027405 339.013702,257.473450 337.137421,259.899323 
	C329.949554,269.192749 329.976532,269.204224 320.984589,261.443909 
	C312.065826,253.746826 303.007660,246.211319 293.930420,238.537140 
	C290.755341,240.307312 289.039001,242.978119 287.156067,245.430603 
	C285.271820,247.884811 283.349182,248.509262 280.989655,246.137741 
	C280.756317,245.903214 280.480377,245.710800 280.222473,245.500961 
	C273.292145,239.862793 273.327423,239.876022 279.090393,233.222702 
	C286.270782,224.932892 293.382294,216.583420 300.789429,208.058472 
z"/>
<path fill="#000000" opacity="1.000000" stroke="none" 
	d="
M253.619202,499.706055 
	C265.757263,488.654968 277.630859,477.855896 289.720123,466.860687 
	C292.965027,470.588593 293.650665,474.570801 294.894379,478.256165 
	C295.689056,480.610931 293.722290,481.842194 292.221466,483.139374 
	C285.574188,488.884644 278.921173,494.623322 272.093262,500.517181 
	C273.624603,502.313019 275.366852,501.688629 276.858398,501.721375 
	C283.341888,501.863831 289.851013,502.275055 296.305603,501.869568 
	C302.025513,501.510284 305.078094,503.739716 306.146179,509.180603 
	C306.549316,511.234131 308.066254,513.090637 307.383789,515.243530 
	C305.794037,516.596863 304.061707,516.233032 302.449219,516.155457 
	C287.845184,515.452820 273.244629,514.677185 258.641174,513.962341 
	C254.876877,513.778076 252.112396,512.722961 250.755249,508.582825 
	C249.510132,504.784485 250.288864,502.173004 253.619202,499.706055 
z"/>
<path fill="#000000" opacity="1.000000" stroke="none" 
	d="
M487.001770,690.222046 
	C481.757050,689.664795 476.971954,689.050903 472.170837,688.611267 
	C468.941498,688.315613 467.340607,686.945679 467.711334,683.493652 
	C469.220276,669.443726 470.652527,655.385559 472.101807,641.329224 
	C472.439087,638.057739 473.856079,636.869324 477.407410,637.381531 
	C483.819366,638.306152 490.308868,638.796997 496.783417,639.150085 
	C501.863556,639.427185 502.546692,642.177002 502.153839,646.496094 
	C501.757690,650.851135 499.466827,651.744324 495.763214,651.177002 
	C494.119934,650.925232 492.462860,650.764587 490.813293,650.552612 
	C484.411835,649.729858 483.874176,650.262939 484.219971,657.340393 
	C487.640656,658.502075 491.263489,658.851135 494.901459,658.921265 
	C500.157623,659.022522 499.338989,662.661621 499.225281,665.993408 
	C499.100128,669.661316 497.656311,671.621277 493.621796,670.900635 
	C491.338135,670.492859 488.987122,670.478210 486.678650,670.189087 
	C483.536652,669.795654 482.181030,671.036926 481.937897,674.276672 
	C481.697845,677.475769 483.415405,677.823547 485.829285,677.979797 
	C487.981293,678.119019 490.116821,678.513611 492.259369,678.797668 
	C494.337097,679.073242 497.022827,678.501465 497.845001,681.073425 
	C498.721497,683.815247 498.121521,686.702576 496.979950,689.351746 
	C496.432220,690.622803 495.132202,690.568481 493.939697,690.513550 
	C491.778381,690.414001 489.616302,690.330017 487.001770,690.222046 
z"/>
<path fill="#000000" opacity="1.000000" stroke="none" 
	d="
M589.056396,156.913727 
	C587.284668,162.523178 585.795227,167.811844 583.914734,172.957596 
	C582.591553,176.578262 583.883240,178.175232 587.280518,179.091797 
	C590.807434,180.043320 594.242249,181.330490 597.744690,182.379974 
	C600.684509,183.260895 601.881531,184.907211 600.711182,187.971359 
	C600.119995,189.518997 599.746277,191.150803 599.294434,192.750244 
	C598.446106,195.752853 596.716980,196.611237 593.652222,195.613937 
	C584.960266,192.785446 576.218445,190.106750 567.465088,187.472687 
	C564.585022,186.606018 563.912537,185.024155 564.805115,182.230759 
	C570.167297,165.449142 575.497986,148.656967 580.712646,131.829102 
	C581.756409,128.460892 583.537903,127.844078 586.676331,128.919144 
	C598.176270,132.858551 597.250244,130.988968 593.661011,142.267395 
	C592.149353,147.017395 590.667236,151.776794 589.056396,156.913727 
z"/>
<path fill="#000000" opacity="1.000000" stroke="none" 
	d="
M401.937256,484.255981 
	C381.875732,484.992798 362.622101,482.721741 343.565643,478.327911 
	C332.439392,475.762543 323.525116,470.400818 318.587311,459.660004 
	C317.922119,458.213043 316.848755,456.788361 317.981018,454.098907 
	C361.473663,475.288757 406.912598,483.128204 455.343597,472.059692 
	C451.111603,477.774139 421.662476,484.160675 401.937256,484.255981 
z"/>
<path fill="#000000" opacity="1.000000" stroke="none" 
	d="
M546.818848,267.091858 
	C536.910828,243.558105 523.099792,222.958633 506.345245,204.555542 
	C507.436005,202.420578 508.884399,202.897552 510.116455,203.102524 
	C519.745239,204.704407 527.920776,208.911987 533.103699,217.425797 
	C548.860718,243.309402 559.580322,270.987305 562.607788,301.389893 
	C563.349426,308.836975 563.562439,316.271851 563.572449,323.733246 
	C563.573792,324.729797 563.767212,325.765747 561.174011,326.743042 
	C559.515625,306.056824 555.008057,286.282104 546.818848,267.091858 
z"/>
<path fill="#000000" opacity="1.000000" stroke="none" 
	d="
M678.112427,448.029175 
	C673.254883,445.553284 668.406799,443.804810 663.279968,439.647247 
	C680.767578,431.811523 695.488831,421.363190 709.550598,410.262726 
	C711.746704,412.135468 711.211365,413.911316 711.073486,415.464752 
	C710.030762,427.216003 708.320923,438.852783 705.675781,450.376923 
	C704.611206,455.014893 702.475952,455.802765 698.268921,454.822784 
	C691.438049,453.231567 684.886658,450.924347 678.112427,448.029175 
z"/>
<path fill="#000000" opacity="1.000000" stroke="none" 
	d="
M428.424713,468.000366 
	C407.922089,470.688568 388.121002,468.225250 368.602875,463.816010 
	C353.988861,460.514587 339.804474,455.466339 326.612122,448.233063 
	C317.678009,443.334503 312.811676,435.343262 311.911926,424.738922 
	C330.148376,437.128510 348.942963,448.083923 369.752594,455.333344 
	C390.437988,462.539551 411.696808,465.759521 434.148956,464.929779 
	C432.537476,467.862701 430.318939,467.059723 428.424713,468.000366 
z"/>
<path fill="#000000" opacity="1.000000" stroke="none" 
	d="
M550.405701,309.292236 
	C550.324890,310.768127 551.223083,311.941162 549.301514,313.797028 
	C538.326233,268.690887 511.980560,234.509277 475.734833,207.242844 
	C478.201874,204.771469 480.523895,205.028183 482.816925,205.256271 
	C491.082886,206.078506 498.316681,209.155716 503.895050,215.442825 
	C527.813293,242.399887 544.592773,272.927338 550.405701,309.292236 
z"/>
<path fill="#000000" opacity="1.000000" stroke="none" 
	d="
M342.987732,571.019287 
	C345.734650,569.363831 347.808838,570.332886 350.008453,572.398987 
	C356.308655,578.316833 362.634735,584.226624 369.252533,589.779724 
	C373.222748,593.111206 371.573212,595.317993 368.962555,598.315247 
	C366.086914,601.616760 363.771912,601.971985 360.943512,598.461121 
	C359.826691,597.074890 358.307770,596.012634 356.549896,594.420593 
	C350.922852,600.487000 345.539490,606.283630 340.164612,612.088196 
	C337.567078,614.893433 334.911469,617.649780 332.420105,620.546875 
	C330.436310,622.853760 328.732697,622.566345 326.499725,620.786621 
	C319.713135,615.377625 319.709106,615.138367 325.646088,608.744446 
	C331.753540,602.166870 337.617645,595.363281 343.733490,588.793762 
	C345.874573,586.493958 346.054077,584.852356 343.645355,582.579224 
	C338.474182,577.699158 338.572205,577.595276 342.933044,571.303467 
	C343.035522,570.972961 343.002625,571.002808 342.987732,571.019287 
z"/>
<path fill="#000000" opacity="1.000000" stroke="none" 
	d="
M272.638428,539.603882 
	C284.330444,533.145325 295.730255,526.920898 307.034576,520.527527 
	C309.911591,518.900330 311.686951,519.031860 313.546112,522.048584 
	C318.152832,529.523499 318.146271,529.873962 310.604156,534.005371 
	C299.505310,540.085022 288.333588,546.042786 277.404449,552.415283 
	C273.423584,554.736389 271.667877,553.752380 269.780853,550.006104 
	C266.294952,543.085693 266.129089,543.169250 272.638428,539.603882 
z"/>
<path fill="#000000" opacity="1.000000" stroke="none" 
	d="
M689.355286,558.419983 
	C700.153809,567.580811 710.580688,576.606750 721.192871,585.409424 
	C724.398315,588.068298 724.697754,590.334595 721.637024,593.069397 
	C719.115112,595.322754 717.767761,600.090027 712.774292,595.615479 
	C702.507935,586.416260 691.806030,577.703186 681.286011,568.786926 
	C679.477112,567.253723 677.069153,565.352600 679.713623,563.192139 
	C682.401855,560.996033 683.031372,554.250916 689.355286,558.419983 
z"/>
</svg>