<svg version="1.1" id="Layer_1" xmlns="http://www.w3.org/2000/svg" xmlns:xlink="http://www.w3.org/1999/xlink" x="0px" y="0px"
	 width="100%" viewBox="0 0 1024 816" enable-background="new 0 0 1024 816" xml:space="preserve">
<path fill="#000000" opacity="1.000000" stroke="none" 
	d="
M535.532410,1.000000 
	C537.180054,2.015175 538.586182,2.388658 540.098511,2.658577 
	C557.513306,5.766717 570.297852,20.912411 570.305664,38.516140 
	C570.308105,44.008205 570.269775,49.497200 569.505798,54.976547 
	C569.076965,58.052082 567.836914,59.483925 564.694824,59.262451 
	C558.717224,58.841118 552.730591,58.546684 546.754883,58.102154 
	C543.264526,57.842506 541.935608,56.002029 542.301025,52.384480 
	C542.785706,47.586952 542.960083,42.736393 542.914124,37.911991 
	C542.844299,30.591639 538.183044,26.428251 530.231201,26.214907 
	C521.721863,25.986605 516.888794,29.609329 516.377747,37.080799 
	C514.924011,58.333714 513.644836,79.598534 512.274902,100.857246 
	C512.007507,105.006828 511.416687,109.147476 511.369537,113.296730 
	C511.286346,120.613213 515.377563,125.123489 522.252441,125.730919 
	C531.760498,126.570999 536.311646,123.636856 537.998901,115.870949 
	C538.969360,111.403992 538.462524,106.901215 538.783020,102.424423 
	C539.181763,96.854370 540.058899,96.101280 545.473877,96.521042 
	C550.949158,96.945473 556.426331,97.352844 561.907288,97.693039 
	C564.089844,97.828506 565.731384,98.351524 566.269958,100.855354 
	C569.587891,116.280312 561.070007,136.756073 547.711304,145.050446 
	C545.204956,146.606628 542.464783,147.786255 539.809509,149.151505 
	C540.413391,151.806030 542.569641,151.499146 544.184509,151.922516 
	C577.906616,160.763214 606.648438,177.465683 628.069275,205.484512 
	C644.776550,227.337875 653.664856,252.386551 657.156311,279.456329 
	C657.695801,283.638947 658.955750,286.969818 662.056274,289.946411 
	C673.484314,300.917633 681.308350,314.106232 685.409851,329.443115 
	C686.083374,331.961823 687.563354,333.841736 689.373474,335.647766 
	C720.510315,366.713715 751.612793,397.814117 782.719604,428.910065 
	C788.206055,434.394592 788.197083,434.398682 782.778320,439.770142 
	C758.647278,463.690979 734.534363,487.630096 710.361450,511.508453 
	C708.015808,513.825500 706.692566,516.279236 706.115723,519.645691 
	C700.295105,553.619995 689.630920,585.863708 670.788696,615.001831 
	C665.699585,622.871704 659.415771,629.812012 651.384766,634.903259 
	C640.428528,641.849182 629.139648,642.363464 617.780945,636.052185 
	C612.401428,633.062988 607.226929,629.685120 602.091736,626.283813 
	C599.322693,624.449707 597.385498,624.322693 594.797241,626.937866 
	C573.704163,648.251160 552.446350,669.401367 531.270203,690.632629 
	C530.025391,691.880737 528.449829,693.017517 528.339355,695.525757 
	C535.011902,696.380859 541.490479,694.943237 547.962402,694.055908 
	C555.873108,692.971252 563.729309,691.518860 571.766541,691.682983 
	C576.236389,691.774353 579.683167,693.585815 581.055847,697.876465 
	C582.690735,702.986450 583.801758,708.266174 584.331909,713.736206 
	C581.409729,713.974426 580.197021,712.093445 578.757324,710.892212 
	C573.621216,706.606628 567.822266,704.930786 561.158997,705.185852 
	C556.933105,705.347595 554.794250,706.858276 555.337158,711.167969 
	C556.250000,718.414612 557.220520,725.655579 558.298096,732.879333 
	C559.891724,743.562622 561.654297,754.220886 563.232971,764.906311 
	C563.853333,769.105469 565.373047,772.908325 567.400452,776.588257 
	C568.829651,779.182312 568.382996,781.037170 565.060974,781.558228 
	C557.349121,782.767883 549.538635,783.260803 541.905884,785.114807 
	C539.189270,785.774719 536.679321,784.660461 537.512268,781.029846 
	C540.881287,766.345154 535.292419,752.337097 534.259521,737.988892 
	C533.712097,730.383667 531.744629,722.891052 530.823608,715.298401 
	C530.275452,710.779968 527.956604,709.656738 524.001404,710.421265 
	C517.108704,711.753723 511.746979,715.377869 507.831726,721.211975 
	C506.851349,722.672729 506.459320,724.690613 504.032593,725.357666 
	C501.746613,716.652527 493.912537,712.428528 488.386322,706.306824 
	C482.698761,700.006287 476.430603,694.229858 470.416199,688.224304 
	C450.370026,668.207703 430.222839,648.290222 410.369934,628.083740 
	C406.776093,624.425903 404.214050,624.360779 400.314850,627.210938 
	C395.758087,630.541687 390.925812,633.587830 385.919586,636.193665 
	C372.564056,643.145386 359.279358,641.412659 347.900269,631.532410 
	C334.346893,619.764282 326.014496,604.443909 318.727661,588.426453 
	C308.527893,566.005859 301.627350,542.585510 297.622345,518.305420 
	C297.120605,515.263550 295.328308,513.224243 293.306610,511.211334 
	C271.228241,489.228699 249.155746,467.240204 227.075882,445.259094 
	C224.597885,442.792145 222.122879,440.319977 219.576584,437.924530 
	C216.914886,435.420349 216.691833,433.479950 219.613174,430.590332 
	C242.713837,407.740509 265.636292,384.710449 288.606049,361.728333 
	C297.440125,352.889465 306.220398,343.996429 315.107605,335.211426 
	C316.842712,333.496277 317.948547,331.584320 318.579742,329.282928 
	C322.768829,314.008911 330.361877,300.683899 341.850159,289.753632 
	C344.858612,286.891357 346.153809,283.665680 346.674011,279.734741 
	C350.533508,250.572220 360.511230,223.911545 379.298157,200.930923 
	C395.629669,180.953781 416.380768,167.138062 440.311066,158.032150 
	C458.985413,150.926224 478.430786,147.385681 498.414673,146.839401 
	C499.837097,146.800522 501.448456,147.293610 502.775146,145.606339 
	C500.763550,143.908081 498.729980,142.268890 496.781952,140.533722 
	C486.644867,131.504105 483.258423,120.094780 484.321136,106.797112 
	C485.686401,89.713623 486.590240,72.593155 487.680573,55.487831 
	C488.125488,48.507778 488.111298,41.467510 489.053070,34.556438 
	C491.094391,19.576563 499.447540,9.302100 513.500977,3.677714 
	C515.192078,3.000941 516.843933,2.226281 518.756958,1.248501 
	C524.354919,1.000000 529.709900,1.000000 535.532410,1.000000 
M587.245605,447.473785 
	C594.397888,448.023621 601.622437,448.688690 608.612244,446.736694 
	C623.099915,442.690765 637.131592,437.840912 642.563416,421.499329 
	C642.810181,420.757080 643.446899,420.058441 644.069092,419.539948 
	C652.832397,412.236786 656.833313,402.208344 659.592834,391.651672 
	C663.417786,377.018646 664.405579,362.063751 662.628540,347.058777 
	C660.168396,326.286224 650.351990,309.982025 632.100220,299.201050 
	C621.190674,292.757019 609.315125,289.018494 596.823792,287.311890 
	C590.396545,286.433746 583.897156,286.083984 577.431030,285.488434 
	C576.080200,285.364014 574.717651,285.183868 574.118286,283.708923 
	C573.586731,282.400879 574.158081,281.285400 575.272888,280.755981 
	C582.844666,277.160217 589.890137,272.345978 599.251709,276.445343 
	C607.019775,279.846954 615.758240,280.240997 624.160950,281.330353 
	C628.553101,281.899750 631.103027,278.800476 630.359497,274.568115 
	C624.418396,240.746567 608.038879,213.588379 579.075378,194.517014 
	C575.723633,192.310013 572.217896,190.205917 568.043701,190.253601 
	C564.676575,190.292053 561.936829,189.029541 559.252502,187.222229 
	C551.016357,181.676834 542.113159,177.766388 532.323730,175.729416 
	C516.828308,172.505173 501.190033,172.274170 485.563263,173.626358 
	C473.940796,174.632050 462.464355,176.874603 451.952911,182.462189 
	C445.438446,185.925095 439.515594,190.772644 431.572113,190.919312 
	C430.390198,190.941132 429.213318,192.073334 428.061066,192.738495 
	C406.786987,205.019730 391.961212,222.982910 382.174622,245.258423 
	C377.942047,254.892349 375.047394,264.992462 373.381073,275.396057 
	C372.368713,281.716919 374.370880,283.435425 380.487549,281.901123 
	C382.262573,281.455872 384.136200,281.311676 385.839325,280.687531 
	C392.839752,278.122253 401.453400,279.956543 406.858032,272.980347 
	C407.502136,272.148987 408.654388,272.174164 409.663483,272.474396 
	C416.243073,274.431976 422.330933,277.538910 428.445984,280.573364 
	C429.558502,281.125427 430.293732,282.097168 429.976288,283.423126 
	C429.671753,284.695160 428.658569,285.338715 427.425262,285.493195 
	C425.776672,285.699768 424.114685,285.857391 422.454651,285.905914 
	C411.066864,286.238831 399.884796,287.917297 389.057495,291.466705 
	C367.046448,298.682312 350.674011,311.945709 343.808319,334.905396 
	C339.528809,349.216522 339.880554,363.804962 341.731995,378.473022 
	C343.868805,395.402191 350.839142,410.074524 360.333221,424.183563 
	C374.600952,445.386810 406.799561,454.767975 429.537567,443.131561 
	C443.424225,436.024933 451.056824,423.774200 457.049225,410.043518 
	C458.163818,407.489532 458.114594,402.245758 462.187958,403.453003 
	C466.046875,404.596680 464.159851,409.215668 463.717407,412.330017 
	C461.756866,426.129517 455.132904,438.089417 448.846649,450.254974 
	C433.572906,479.813660 429.690918,510.245514 443.094025,541.667725 
	C444.701080,545.435303 446.525391,549.127991 450.203705,552.554321 
	C449.943390,551.136597 449.904999,550.490173 449.704498,549.898743 
	C442.196381,527.753357 444.700409,506.917389 457.916870,487.517090 
	C459.401794,485.337402 460.043213,483.112915 459.839417,480.485474 
	C459.282501,473.304321 459.755524,466.106201 461.094543,459.089844 
	C462.144165,453.589630 464.042084,448.113129 469.634155,445.044464 
	C468.605133,454.770966 465.295135,464.270691 469.234467,473.802246 
	C471.633759,473.919159 473.098785,472.701599 474.630432,471.760315 
	C479.796997,468.585114 485.330444,466.100037 491.270294,465.203247 
	C496.460571,464.419617 497.723389,461.643341 497.751343,457.014587 
	C497.792603,450.195679 498.150635,443.374054 498.552002,436.564087 
	C498.730988,433.527435 498.839783,430.281525 502.117249,428.247559 
	C503.753174,429.777496 504.779236,431.457947 504.769806,433.220306 
	C504.726959,441.195374 508.033264,448.914215 506.472961,456.994598 
	C505.604797,461.490784 506.973846,464.284821 512.039490,465.002502 
	C517.687439,465.802643 522.844360,468.247894 527.906067,470.856903 
	C530.001404,471.936981 532.016174,474.904785 534.508545,473.090363 
	C536.892517,471.354889 536.613892,468.042664 536.566711,465.210938 
	C536.547424,464.050568 536.269043,462.895966 536.224854,461.734283 
	C536.006775,455.993347 534.912842,450.365845 533.157166,444.590729 
	C536.221985,444.666870 537.371582,446.262360 538.256531,447.735809 
	C542.374329,454.591705 545.531677,461.602570 544.843750,470.093933 
	C544.364746,476.006378 542.456238,482.139740 546.441040,487.988892 
	C559.308044,506.876099 562.001343,527.235535 554.424622,548.879089 
	C554.044556,549.965027 553.866272,551.121643 553.593994,552.245300 
	C556.721069,548.915161 559.170593,545.392761 560.896545,541.389832 
	C573.818054,511.422058 570.160583,482.214783 556.778992,453.509033 
	C554.036743,447.626404 550.628479,442.056091 547.833740,436.195618 
	C543.511658,427.132324 540.128296,417.745270 539.702759,407.561646 
	C539.627686,405.766266 539.478271,403.606415 541.849854,403.081421 
	C543.968506,402.612396 544.619507,404.424408 545.321350,405.957336 
	C548.003723,411.815674 551.983826,416.693848 556.770508,420.936859 
	C558.437073,422.414093 559.865173,423.964142 560.037598,426.325500 
	C560.475708,432.327393 563.813660,436.366302 568.625610,439.645874 
	C574.083618,443.365753 579.929016,446.001587 587.245605,447.473785 
M629.533569,564.065796 
	C630.408875,560.010620 630.988464,555.864075 632.207703,551.915039 
	C639.986206,526.721375 649.220520,502.226105 666.329712,481.523773 
	C669.244751,477.996552 668.269836,475.846802 663.732849,475.164032 
	C652.221680,473.431793 640.768127,471.448303 629.052063,471.071136 
	C623.108521,470.879730 619.316467,472.954468 615.950439,477.386047 
	C609.559204,485.800598 604.679382,495.052002 600.431396,504.652618 
	C593.428284,520.479919 588.286560,536.947205 584.528503,553.811646 
	C582.685059,562.084229 581.678345,570.522461 582.206116,579.086975 
	C582.475098,583.451843 583.978821,586.694214 588.027954,588.756348 
	C597.524963,593.593140 606.912903,598.643921 616.406555,603.487305 
	C623.285828,606.996765 625.784302,605.423889 625.624268,597.505310 
	C625.400818,586.448120 626.670898,575.597595 629.533569,564.065796 
M341.278534,485.087433 
	C362.431366,517.861938 376.504242,553.076538 378.308014,592.520447 
	C378.575043,598.359985 380.740479,600.578918 386.562378,600.934753 
	C389.070343,601.088074 391.568451,601.035217 393.887939,599.875427 
	C401.477905,596.080322 409.077362,592.303650 416.640991,588.456726 
	C419.680054,586.911072 421.520020,584.383240 421.623291,580.927307 
	C421.807068,574.777222 421.985046,568.629517 421.004700,562.499634 
	C417.788147,542.388000 411.631134,523.159180 403.472229,504.565979 
	C399.398529,495.282532 395.031189,486.092590 388.802307,477.988434 
	C386.173218,474.567780 383.491913,471.058502 378.460144,471.052765 
	C367.771606,471.040649 357.262054,472.736816 346.779175,474.493744 
	C341.467834,475.383911 339.794281,478.635010 341.278534,485.087433 
M540.956360,563.422424 
	C543.427734,559.866821 546.096252,556.388123 547.559204,552.279419 
	C552.937927,537.173035 551.465698,522.350037 544.258179,508.346375 
	C540.593323,501.225739 536.851074,493.967285 529.514221,489.234039 
	C507.261108,474.877808 479.345581,479.161346 462.763336,499.889221 
	C445.808960,521.082336 449.674988,554.536682 470.787811,571.208801 
	C490.770844,586.988770 522.875244,585.576782 540.956360,563.422424 
M542.985962,616.485962 
	C547.444763,611.995605 551.924316,607.525574 556.349060,603.001892 
	C557.597168,601.725891 559.309570,600.474304 558.415527,598.321533 
	C557.032593,594.991516 555.481140,591.731506 553.967529,588.367065 
	C518.896484,616.144470 484.285889,616.605713 449.739929,587.974060 
	C447.909393,589.821533 448.328552,592.756348 446.894257,594.685120 
	C443.691315,598.992371 445.718964,601.746643 448.892365,604.864807 
	C465.283203,620.969971 481.611115,637.141663 497.760010,653.488586 
	C501.005707,656.774109 503.026428,656.724854 506.198303,653.466003 
	C518.160461,641.175781 530.368652,629.125122 542.985962,616.485962 
M337.705170,437.741913 
	C328.263977,425.109497 322.777405,410.583221 318.274933,394.878876 
	C305.208679,407.864929 292.955261,420.050415 280.690247,432.224213 
	C279.050751,433.851562 279.813812,435.169556 281.110962,436.483582 
	C288.125763,443.589752 295.163422,450.673798 302.128662,457.828278 
	C304.038910,459.790497 305.677582,459.740173 307.685974,457.967590 
	C315.704437,450.890686 325.558716,448.746704 335.801178,447.748688 
	C338.396118,447.495880 341.022247,447.453857 343.320221,445.931030 
	C342.282135,442.663605 339.749268,440.805817 337.705170,437.741913 
M694.294189,403.202332 
	C691.648682,400.868652 689.874451,397.380035 685.118042,396.463470 
	C680.498840,414.682373 672.476868,431.189697 660.346741,445.609741 
	C663.197205,447.542206 665.502747,447.573914 667.831116,447.719543 
	C678.148926,448.364777 687.888306,450.736938 695.857239,457.840363 
	C698.039246,459.785400 699.754150,459.755829 701.803833,457.662079 
	C708.546021,450.774963 715.276733,443.869171 722.245117,437.214844 
	C724.935669,434.645630 724.376221,433.025513 722.042297,430.746796 
	C712.886292,421.807129 703.857727,412.737030 694.294189,403.202332 
M542.858765,710.874756 
	C543.551880,714.562866 541.566162,713.888733 539.386108,712.912659 
	C537.712158,717.485718 538.000061,722.032471 539.346497,726.536926 
	C540.160034,729.258484 541.636414,731.395386 545.016418,730.707458 
	C548.322937,730.034546 550.784729,729.008057 550.128418,724.562500 
	C549.356445,719.333191 548.097778,714.137085 548.926636,708.659241 
	C549.297974,706.205322 551.726562,703.905457 549.781189,700.774658 
	C547.496338,701.450989 545.347778,702.828491 542.830383,702.888855 
	C538.701965,702.987793 537.383118,705.210327 538.239624,708.950562 
	C539.777466,709.769104 541.584961,708.662781 542.858765,710.874756 
z"/>
<path fill="#000000" opacity="1.000000" stroke="none" 
	d="
M678.435120,183.485992 
	C681.441223,175.700714 681.441223,175.700714 674.984619,171.145340 
	C662.476135,162.320160 662.565308,162.411118 651.798279,172.967636 
	C648.656433,176.048019 646.786438,181.587158 642.044434,181.627701 
	C637.895752,181.663147 634.717590,177.440964 631.041382,175.212967 
	C622.077820,169.780624 611.782288,167.914810 602.129517,164.347122 
	C591.517456,160.424850 580.677979,157.119247 569.946533,153.518402 
	C564.425781,151.665985 564.021240,150.815475 565.943542,145.113342 
	C575.034485,118.146446 584.156006,91.189888 593.233704,64.218559 
	C597.799622,50.652321 602.274841,37.055565 606.832642,23.486549 
	C608.842957,17.501534 609.473328,17.193115 615.462158,19.120483 
	C619.896545,20.547583 624.239258,22.295137 628.729675,23.502350 
	C633.051392,24.664223 633.701050,26.874697 632.323669,30.896404 
	C623.153259,57.672226 614.141968,84.502556 605.087646,111.318123 
	C602.692444,118.411812 600.393738,125.538872 597.920654,132.605103 
	C596.742981,135.970032 597.734497,138.166672 601.007751,139.280838 
	C612.038574,143.035553 623.093994,146.717789 634.133118,150.448105 
	C636.959778,151.403229 638.911011,150.042633 640.761658,148.164062 
	C659.466919,129.176834 678.170715,110.188133 696.908081,91.232628 
	C704.285828,83.769043 711.789612,76.429817 719.144104,68.943649 
	C721.350525,66.697701 723.519531,66.126640 726.212097,67.911819 
	C731.487671,71.409637 736.742615,74.941727 742.091614,78.324509 
	C745.234314,80.312012 745.494812,82.677719 744.194946,85.980141 
	C729.071655,124.401047 714.038574,162.857483 699.000671,201.311966 
	C698.411804,202.817642 697.457947,204.277328 697.989685,206.347824 
	C700.921814,207.148376 702.525208,204.701263 704.183533,203.267075 
	C719.800415,189.760956 735.285583,176.102707 750.813721,162.493958 
	C752.530334,160.989563 754.119507,159.241592 757.160217,159.034683 
	C755.107483,163.807632 757.547302,166.284470 760.824646,169.329254 
	C763.696960,171.997726 765.762329,173.726471 769.321472,171.479370 
	C771.776428,169.929382 774.507263,161.498077 773.630615,158.691315 
	C772.624634,155.470734 768.337830,154.104462 765.326843,156.044815 
	C763.091553,157.485291 763.091553,157.485291 758.595581,156.521591 
	C764.078247,151.466492 768.311768,145.686554 775.191345,143.165878 
	C777.086975,142.471298 778.013123,141.882751 778.762268,139.803223 
	C780.148743,135.954193 783.896790,133.831985 786.887878,131.268341 
	C799.805420,120.196762 796.313965,120.069954 807.371155,132.628082 
	C820.242981,147.247192 818.659180,141.656937 809.445923,157.878021 
	C803.199158,168.876266 796.277100,179.489517 789.775818,190.346039 
	C788.589966,192.326309 786.409607,194.272675 788.168701,197.353073 
	C792.042847,196.739334 794.443542,193.779526 797.087219,191.503891 
	C806.924622,183.035965 816.502563,174.267334 826.306641,165.759995 
	C831.852356,160.947876 832.363647,161.128342 836.994263,166.647293 
	C839.884583,170.091995 842.652954,173.667191 845.812561,176.849731 
	C848.897705,179.957260 848.082581,182.181564 845.162415,184.690964 
	C829.375610,198.256729 813.626160,211.866302 797.902039,225.504745 
	C780.916565,240.237289 763.959839,255.003143 747.020691,269.788971 
	C742.929199,273.360321 741.737000,273.317474 738.147766,269.133789 
	C734.894043,265.341156 731.710938,261.478851 728.290100,257.841614 
	C725.844604,255.241470 725.746216,253.044601 727.643250,249.927063 
	C738.898926,231.429810 749.938721,212.801163 761.059570,194.221817 
	C762.068115,192.536942 763.289734,190.934708 762.770935,187.935226 
	C757.401001,190.520935 753.912964,194.840622 749.874634,198.237686 
	C737.645081,208.525269 725.744080,219.203949 713.738098,229.756577 
	C708.587646,234.283585 708.192627,234.359711 703.441956,229.098450 
	C699.650574,224.899521 696.143860,220.444336 692.377686,216.221619 
	C688.329590,211.682846 682.752197,209.189896 677.836792,205.826736 
	C671.196716,201.283539 671.112366,201.421219 674.162231,194.024948 
	C675.558655,190.638626 676.917908,187.236969 678.435120,183.485992 
M705.716370,94.625786 
	C703.229553,99.203522 704.715271,105.547867 708.810120,105.993835 
	C711.489990,106.285690 712.225647,107.550499 712.839294,109.433990 
	C714.892822,115.737137 720.590881,115.861122 725.582153,116.561737 
	C727.858704,116.881294 730.400696,114.825546 729.286743,112.005646 
	C728.372864,109.692421 728.700073,108.585617 730.349121,106.930222 
	C732.522949,104.747910 732.065674,101.566376 731.308899,99.075806 
	C730.416138,96.137718 727.880249,98.948944 726.125366,98.501999 
	C723.703308,97.885109 722.590576,99.421021 721.375427,101.174194 
	C720.357422,102.642921 718.677612,103.285576 717.147522,101.794037 
	C716.344788,101.011497 715.576294,99.387093 716.835571,98.738007 
	C722.634949,95.748756 722.904785,87.222794 730.176270,85.655487 
	C731.334167,85.405922 732.267639,83.604546 733.079346,82.372101 
	C734.505005,80.207451 733.155273,78.665916 731.690796,77.163734 
	C730.046143,75.476768 728.913635,76.139740 727.055420,77.266190 
	C722.792725,79.850166 720.599426,85.981506 714.118469,84.981125 
	C713.616272,84.903603 712.599121,86.625877 712.209778,87.658173 
	C711.259705,90.176804 710.723694,92.806129 711.548218,95.402885 
	C709.320923,96.206810 708.041077,94.535385 705.716370,94.625786 
M693.719666,146.234940 
	C696.492126,138.856750 700.965088,132.017212 701.709656,123.157150 
	C700.180115,123.686089 699.426086,123.721466 699.033875,124.116310 
	C693.190063,129.999191 687.365540,135.902130 681.613037,141.874100 
	C680.573547,142.953217 679.670898,144.567352 680.547729,145.968384 
	C682.375061,148.888275 685.302673,150.740433 688.531799,151.525955 
	C691.939148,152.354813 692.148560,148.866547 693.719666,146.234940 
M805.755981,192.116196 
	C803.987244,194.538101 800.007263,192.415802 798.547974,195.603638 
	C799.313416,197.988342 801.371765,199.056046 803.416321,199.294281 
	C806.134705,199.611099 808.893433,198.804230 809.493774,195.558731 
	C809.897095,193.378723 809.845825,190.930954 805.755981,192.116196 
M737.902588,259.210297 
	C740.439697,261.907318 742.834900,260.572174 745.287170,259.199677 
	C743.887085,254.048080 741.674988,253.013565 734.774902,254.119446 
	C734.922363,256.166840 738.575745,255.948151 737.902588,259.210297 
z"/>
<path fill="#000000" opacity="1.000000" stroke="none" 
	d="
M875.685181,487.246277 
	C878.545532,492.064758 876.818726,494.682312 872.589661,497.117950 
	C843.720886,513.744202 814.772583,514.133118 785.736877,497.790985 
	C778.894653,493.939972 779.033936,493.677063 781.567444,486.387787 
	C791.263245,458.491547 797.916931,429.849396 802.540649,400.713135 
	C802.957153,398.088684 802.971680,395.398682 803.419617,392.781372 
	C804.029724,389.216888 803.390808,386.223969 800.488586,383.809113 
	C799.088989,382.644501 797.781311,381.304474 796.684265,379.853180 
	C793.239990,375.296906 794.779663,370.089111 799.982666,367.869659 
	C818.887329,359.805389 837.784912,359.691071 856.718018,367.739502 
	C861.665894,369.842804 864.026489,376.942200 859.899536,380.112976 
	C852.511230,385.789398 853.418518,392.899475 854.533630,400.275391 
	C858.991577,429.761627 865.546326,458.751404 875.685181,487.246277 
z"/>
<path fill="#000000" opacity="1.000000" stroke="none" 
	d="
M214.329712,465.818359 
	C216.863281,473.636230 219.008270,481.176544 221.872391,488.432983 
	C223.353271,492.184967 222.557556,494.219910 219.429062,496.255157 
	C209.072159,502.992950 197.859772,507.464111 185.571869,508.810364 
	C166.001892,510.954468 147.471878,507.977844 130.466141,497.334808 
	C126.027016,494.556580 125.055878,492.007233 126.940422,486.821472 
	C136.904938,459.401733 143.458893,431.091736 147.714081,402.242828 
	C148.077148,399.781311 148.311813,397.300110 148.706955,394.844269 
	C149.597778,389.307648 147.893433,385.035858 143.662399,381.128265 
	C138.260315,376.139221 139.687881,370.479279 146.291962,367.656830 
	C165.254272,359.552765 184.121887,359.878937 202.979568,367.983765 
	C207.580063,369.960968 209.829315,376.639984 205.894287,379.578003 
	C197.421494,385.904083 199.242935,393.947540 200.457199,402.141235 
	C203.628769,423.542816 208.417480,444.596527 214.329712,465.818359 
z"/>
<path fill="#000000" opacity="1.000000" stroke="none" 
	d="
M359.226807,82.881989 
	C365.942749,100.867653 372.518280,118.490280 379.142426,136.094620 
	C382.114624,143.993576 387.922821,146.575211 395.888977,143.650818 
	C404.292908,140.565720 407.204041,134.948120 404.412018,126.940186 
	C402.987305,122.853943 401.405518,118.819527 399.791443,114.803185 
	C398.480164,111.540344 399.206421,109.464401 402.718079,108.282745 
	C408.239624,106.424789 413.683868,104.336060 419.152740,102.323067 
	C421.344727,101.516220 423.694855,101.062843 424.740662,103.673851 
	C429.061615,114.461670 434.223602,125.107353 431.584381,137.338562 
	C429.533081,146.845322 425.101410,154.987030 416.803528,160.224152 
	C399.037872,171.436783 383.504242,173.664093 367.691650,163.621613 
	C360.379822,158.977921 355.800079,152.108810 352.800537,144.109421 
	C344.441681,121.817314 335.949127,99.573959 327.781464,77.211967 
	C320.034760,56.002598 329.878571,35.900204 351.056854,27.592527 
	C365.243896,22.027336 378.549866,21.742952 391.305115,30.957197 
	C398.511383,36.162910 402.388702,43.460888 405.391663,51.642399 
	C411.062836,67.093369 411.478271,63.485504 397.257629,69.269684 
	C396.179321,69.708275 395.043365,70.004021 393.960114,70.431801 
	C384.256592,74.263969 384.258301,74.268295 380.817810,64.306419 
	C380.165924,62.418896 379.572113,60.508919 378.852509,58.647560 
	C374.813721,48.200684 366.763031,45.592430 357.389709,51.667587 
	C352.459869,54.862778 350.796631,59.893116 352.945679,66.153069 
	C354.836792,71.661636 357.040527,77.062866 359.226807,82.881989 
z"/>
<path fill="#000000" opacity="1.000000" stroke="none" 
	d="
M273.737427,144.289673 
	C257.434113,133.885971 241.450546,123.649094 225.410873,113.500908 
	C219.041809,109.471252 218.942871,108.241646 225.158508,103.753471 
	C228.803528,101.121475 232.558090,98.632645 236.102982,95.873360 
	C238.628342,93.907661 240.664261,94.085777 243.259827,95.901443 
	C251.171631,101.435913 259.250641,106.731956 267.284607,112.090744 
	C268.775726,113.085335 270.361389,114.591820 272.243622,113.268440 
	C274.207062,111.887962 273.057983,109.961708 272.567902,108.249084 
	C270.007507,99.301567 267.538116,90.325851 264.811829,81.428978 
	C263.673523,77.714294 264.319672,75.133232 267.707611,72.967720 
	C271.770416,70.370857 275.529022,67.303284 279.516174,64.581314 
	C283.755951,61.686852 285.187317,62.145481 286.458984,67.153145 
	C289.853943,80.522087 293.055634,93.940079 296.345428,107.335793 
	C298.089996,114.439415 299.873169,121.533569 301.609070,128.639297 
	C302.439087,132.036789 304.260620,134.498596 307.320190,136.413422 
	C325.378571,147.715302 343.336609,159.177460 361.335907,170.573868 
	C367.712280,174.611099 367.758759,176.049866 361.624664,180.366333 
	C359.446106,181.899353 357.304474,183.484879 355.145935,185.046310 
	C347.147247,190.832321 347.173920,190.793747 338.900665,185.071213 
	C331.918304,180.241562 324.902435,175.457657 317.814453,170.785416 
	C316.147552,169.686615 314.300507,167.365021 312.125977,169.194641 
	C310.364044,170.677109 311.621307,172.931320 312.156311,174.821640 
	C314.919525,184.584412 317.542358,194.391083 320.548950,204.078552 
	C321.617676,207.521942 321.015625,209.753052 318.099609,211.750870 
	C314.118134,214.478638 310.329590,217.486511 306.377594,220.259232 
	C301.374268,223.769638 300.049805,223.293839 298.572174,217.475067 
	C295.954773,207.167847 293.413635,196.841263 290.841217,186.522614 
	C288.106049,175.551025 285.248047,164.607895 282.693115,153.594467 
	C281.554688,148.687057 277.509247,146.957520 273.737427,144.289673 
M238.462357,111.804710 
	C238.482346,114.729706 240.754059,115.358192 242.402786,116.218567 
	C247.339310,112.848602 244.029449,107.873528 245.544983,104.000999 
	C246.320831,102.018524 246.055222,100.728416 244.237961,99.974365 
	C242.154846,99.110001 239.915909,97.954521 237.781433,99.871414 
	C236.305374,101.197029 236.537109,102.592010 237.500168,104.282173 
	C238.681442,106.355286 240.313995,108.533028 238.462357,111.804710 
M276.318909,79.798210 
	C276.975464,78.331215 277.233002,76.953445 275.520813,76.007797 
	C271.796997,77.529381 269.700104,79.258530 269.577942,80.719009 
	C269.400909,82.836395 272.024200,82.063896 272.435760,83.484016 
	C272.201721,85.012688 270.324615,85.798515 270.818909,87.533821 
	C276.012482,90.243874 278.806183,90.126709 280.211212,87.139931 
	C274.550629,86.717110 273.489258,85.034027 276.318909,79.798210 
z"/>
<path fill="#000000" opacity="1.000000" stroke="none" 
	d="
M196.938202,129.596161 
	C198.501343,128.564926 199.833679,128.521698 200.974289,129.439072 
	C205.256119,132.882919 209.511536,136.361496 213.711563,139.904434 
	C215.928070,141.774170 215.075989,143.645569 213.535080,145.533035 
	C210.059570,149.790161 206.805435,154.237534 203.177811,158.357956 
	C200.299820,161.626907 200.812225,164.184982 203.903458,166.775696 
	C209.894119,171.796356 215.837448,176.873535 221.835846,181.884857 
	C223.216187,183.038055 225.025055,183.823074 224.705399,186.536453 
	C221.237000,185.918335 219.030991,182.939301 215.646042,181.769150 
	C214.353867,184.652313 215.367630,188.443573 210.314819,189.365601 
	C207.587128,189.863342 207.893982,195.621277 205.616928,198.519180 
	C204.994797,199.310944 206.775421,201.367050 207.910599,201.263992 
	C212.668488,200.831970 214.548080,204.769302 216.989944,207.309830 
	C220.124069,210.570557 223.234055,210.310532 226.272629,208.331100 
	C230.744904,205.417664 234.874252,204.037521 239.123199,208.670776 
	C243.533340,200.851074 236.662674,198.367279 232.811844,194.377686 
	C235.215485,191.941147 236.563843,194.162537 237.840851,195.214508 
	C251.854675,206.758667 265.816040,218.366531 279.790283,229.958740 
	C282.224365,231.977890 284.640289,234.019119 287.086426,236.023544 
	C289.265503,237.809128 289.716431,239.685791 287.751617,241.987946 
	C283.966888,246.422516 280.203796,250.878799 276.556000,255.425766 
	C274.356720,258.167145 272.283966,257.928619 269.789734,255.853149 
	C253.272293,242.109024 236.716431,228.411026 220.168304,214.703766 
	C209.274216,205.679901 198.346375,196.696472 187.488358,187.629440 
	C183.958038,184.681442 180.989456,184.936615 178.142227,188.551331 
	C175.157013,192.341202 172.016876,196.008652 168.999237,199.773514 
	C166.380569,203.040604 163.722504,204.036667 160.265961,200.734192 
	C157.144043,197.751450 153.743683,195.056519 150.421371,192.288361 
	C148.008163,190.277664 147.937653,188.226212 149.921295,185.851608 
	C165.509003,167.191711 181.070023,148.509521 196.938202,129.596161 
M164.836365,184.663254 
	C165.526154,183.436768 165.958786,182.220779 164.609863,181.131714 
	C163.306580,180.079498 162.052414,180.732666 160.948746,181.425430 
	C157.704651,183.461746 155.801987,186.724380 155.091400,190.204163 
	C154.382263,193.676788 158.805389,192.569641 160.246216,194.496704 
	C162.023453,196.873734 163.868286,194.982986 165.406250,194.013611 
	C167.466141,192.715271 166.257858,190.981659 165.265213,189.780045 
	C164.063919,188.325867 163.579346,187.007629 164.836365,184.663254 
z"/>
<path fill="#000000" opacity="1.000000" stroke="none" 
	d="
M260.029358,544.968628 
	C253.972992,541.190613 249.629974,543.014648 248.618546,550.110413 
	C247.732941,556.323364 247.527710,562.643127 247.809525,568.991577 
	C248.225952,578.372131 247.247513,587.634033 242.180923,595.908630 
	C236.303711,605.507080 222.115952,608.828552 209.998596,603.755554 
	C197.130310,598.368225 191.432968,587.756653 188.726242,574.961609 
	C187.868454,570.906799 187.341782,566.771179 186.870514,562.648865 
	C186.508820,559.484985 185.264328,556.961670 182.757339,554.976990 
	C181.277954,553.805786 179.527908,551.842712 181.847946,550.578918 
	C188.458267,546.978027 194.995941,543.083740 202.249008,540.813110 
	C204.055725,544.037476 202.578079,546.571167 201.879196,549.006897 
	C199.615265,556.897217 199.774780,564.786804 201.413269,572.709778 
	C202.240479,576.709717 204.086151,580.269958 207.060974,583.088623 
	C210.941284,586.765259 214.733841,586.065857 217.002960,581.223206 
	C218.858261,577.263550 219.621017,573.018127 219.681335,568.625366 
	C219.786301,560.980469 219.409958,553.312073 220.728149,545.718811 
	C222.454666,535.773376 225.868774,526.916870 236.467316,523.349060 
	C246.976212,519.811462 256.472534,522.230713 264.824615,529.250183 
	C273.907837,536.884155 278.144257,546.826477 278.321930,558.608582 
	C278.412720,564.630615 280.158966,569.989380 286.098969,574.281067 
	C277.884613,578.121582 271.117828,582.473572 263.270294,585.044617 
	C261.616638,582.041382 263.163513,579.778381 263.892151,577.565125 
	C267.631775,566.206116 267.216003,555.360046 260.029358,544.968628 
z"/>
<path fill="#000000" opacity="1.000000" stroke="none" 
	d="
M629.686523,675.572205 
	C641.084900,674.223816 650.767090,678.273926 658.858948,684.719543 
	C672.688049,695.735413 677.813843,711.026184 673.742676,728.032166 
	C669.886597,744.139587 658.694458,754.887207 642.537964,758.546631 
	C625.864929,762.322998 611.479004,756.770020 600.898926,743.221375 
	C590.784668,730.269226 588.780701,715.938660 595.123535,700.485352 
	C601.443115,685.088684 613.683411,678.138123 629.686523,675.572205 
M653.216492,724.180115 
	C650.258240,710.616760 645.011719,698.515137 631.925476,691.610168 
	C623.417603,687.120972 615.936768,690.845581 614.180969,700.367920 
	C611.190430,716.586670 618.149841,729.268799 629.279846,739.902222 
	C633.158875,743.608337 638.408875,747.081177 644.608582,744.557617 
	C651.271057,741.845703 652.514587,735.634399 653.521484,729.469666 
	C653.757446,728.024719 653.463684,726.493286 653.216492,724.180115 
z"/>
<path fill="#000000" opacity="1.000000" stroke="none" 
	d="
M306.691284,698.494751 
	C300.834137,699.571472 297.518097,703.577087 294.663544,707.872375 
	C292.226410,711.539551 289.895630,712.057678 286.695862,708.987488 
	C283.512512,705.933105 278.959351,704.588379 275.414337,700.383850 
	C283.996277,697.233154 291.275421,693.098633 298.129974,688.131958 
	C309.446136,679.932312 320.977875,672.030640 332.395630,663.970642 
	C335.826233,661.548950 338.813721,658.649902 340.975586,655.015137 
	C342.732178,652.061829 344.725494,652.023560 347.603577,653.656128 
	C358.866760,660.044922 360.675812,663.485291 357.329559,675.896057 
	C352.439087,694.034119 347.178040,712.072449 342.040802,730.143616 
	C340.880157,734.226379 341.223480,738.397827 341.085388,742.544556 
	C340.980255,745.701660 339.291443,746.504639 336.869781,744.858887 
	C330.680298,740.652527 324.600311,736.279846 318.574463,731.840698 
	C316.358185,730.208069 316.283417,728.075195 317.768036,725.683105 
	C328.315582,708.688232 324.221863,711.383484 312.109619,701.725281 
	C310.561829,700.491028 308.736084,699.605408 306.691284,698.494751 
M326.080048,691.401001 
	C327.114929,689.949036 328.856293,688.327576 326.851318,686.725891 
	C325.161652,685.376099 323.011322,685.838623 321.437256,687.411926 
	C319.992065,688.856323 319.630127,690.751465 320.909546,692.365967 
	C322.492065,694.362854 324.125183,693.159668 326.080048,691.401001 
z"/>
<path fill="#000000" opacity="1.000000" stroke="none" 
	d="
M727.190308,663.753357 
	C738.428406,667.294312 748.948303,671.984070 760.301208,672.153687 
	C761.155884,674.414673 760.094299,675.346069 759.115540,676.195740 
	C753.342102,681.207825 747.472778,686.111084 741.760681,691.191528 
	C739.029419,693.620850 736.658813,693.628174 733.830444,691.335205 
	C729.489563,687.816162 724.203552,686.052185 718.963562,684.504333 
	C714.569458,683.206299 713.317017,684.729553 713.930725,689.330017 
	C714.708191,695.157959 716.154053,700.764099 719.142883,705.870850 
	C720.611816,708.380859 720.517273,710.472900 718.296875,712.543335 
	C714.465332,716.116211 711.034851,720.167542 705.924500,722.953247 
	C704.191650,718.238770 705.416870,713.922119 705.031433,709.741333 
	C704.103638,699.678955 702.089050,689.776001 698.696533,680.255798 
	C697.464294,676.797852 693.882446,675.262695 690.520996,674.161987 
	C679.497620,670.552490 668.908569,665.305298 656.950012,665.133972 
	C655.805908,665.117554 654.638916,664.734497 654.083374,663.427795 
	C653.881226,661.632568 655.347961,660.890259 656.437500,659.932922 
	C661.812378,655.209961 667.273682,650.582703 672.563110,645.766418 
	C675.328491,643.248291 677.871338,642.452026 680.742188,645.446167 
	C684.521057,649.387329 689.795532,650.222778 694.617493,651.912048 
	C698.020691,653.104248 698.726501,650.647034 698.588379,648.055542 
	C698.302124,642.684753 697.130798,637.469849 694.265442,632.863403 
	C692.300232,629.704041 692.763977,627.283997 695.535461,625.049988 
	C699.478943,621.871155 702.526123,617.619629 706.869019,614.886902 
	C709.041992,616.845337 708.424438,618.993164 708.286743,620.831848 
	C707.645142,629.401733 709.816467,637.693481 710.523926,646.124023 
	C711.377747,656.298950 717.535583,661.385681 727.190308,663.753357 
M696.848511,664.926697 
	C700.584595,668.790344 701.405334,674.930420 706.451294,677.631287 
	C710.723877,676.511719 712.069946,673.367737 713.000671,669.514893 
	C708.471924,668.765076 705.885315,666.739807 708.043945,661.767212 
	C709.010803,659.539978 707.842285,658.076477 706.115845,656.876160 
	C703.061646,659.519104 700.185242,662.008118 696.848511,664.926697 
M719.713196,670.929565 
	C717.589233,672.026001 717.475952,675.292664 714.404724,675.529907 
	C717.569763,677.201599 720.450012,677.392334 723.253113,675.338745 
	C724.783264,674.217712 726.406311,673.028137 724.955444,670.882324 
	C723.606384,668.886963 721.917908,669.256287 719.713196,670.929565 
z"/>
<path fill="#000000" opacity="1.000000" stroke="none" 
	d="
M825.827515,551.714478 
	C829.079224,570.299011 818.266418,587.551636 803.764648,594.794617 
	C787.061401,603.137024 767.383972,600.246460 754.499146,586.770691 
	C742.220886,573.929260 737.250793,557.083374 746.475159,539.609924 
	C747.809814,537.081665 749.379944,534.797791 751.535645,532.870789 
	C755.343384,529.467102 758.530090,525.704041 756.957825,519.281860 
	C765.141479,520.874512 772.265991,523.202148 779.182434,527.533752 
	C776.794617,530.343445 774.014526,531.113770 771.503784,532.214966 
	C769.200195,533.225281 766.938049,534.255554 765.005493,535.870972 
	C753.911621,545.144104 753.528503,554.012085 763.875671,564.104919 
	C773.182678,573.183105 784.280273,577.546814 797.377625,576.694641 
	C808.328613,575.982178 816.459412,565.433655 814.165894,554.686462 
	C813.749573,552.735535 813.332947,550.777283 812.763245,548.868164 
	C811.663086,545.181885 812.747986,542.760742 816.504517,541.517761 
	C820.197083,540.295898 822.261108,542.255920 823.663879,545.160400 
	C824.592773,547.083862 825.040894,549.239502 825.827515,551.714478 
z"/>
<path fill="#000000" opacity="1.000000" stroke="none" 
	d="
M273.405640,585.197632 
	C277.749237,582.989502 280.742920,585.016235 283.648651,587.480835 
	C291.978363,594.545959 297.767548,603.812500 304.748230,612.037231 
	C309.792633,617.980652 313.970001,624.660645 318.525024,631.018555 
	C321.122467,634.644043 320.993652,638.377747 318.020142,641.510254 
	C314.855438,644.844238 311.194550,647.707336 307.266235,651.207336 
	C306.002228,647.799927 306.922028,645.012085 306.945557,642.334595 
	C306.987518,637.559509 306.215576,633.161560 303.614746,629.007019 
	C301.293793,625.299744 298.908142,624.845825 295.557831,627.555786 
	C286.498383,634.883789 277.371063,642.127930 268.280609,649.417725 
	C261.809418,654.607056 254.813934,659.234924 250.385559,666.581482 
	C248.959885,668.946533 246.952042,668.548096 245.459808,666.728577 
	C240.931381,661.207275 236.522293,655.586243 232.155121,649.935669 
	C230.692963,648.043884 231.379898,646.549316 233.483200,645.582642 
	C251.474945,637.314331 264.591766,622.345886 280.540100,611.258057 
	C285.727539,607.651489 285.540131,605.772461 281.034088,601.456970 
	C277.029785,597.622009 272.407898,595.313965 266.732880,595.344604 
	C265.135162,595.353271 263.380890,595.748474 261.248383,593.685608 
	C264.768829,590.235779 269.020203,587.926453 273.405640,585.197632 
z"/>
<path fill="#000000" opacity="1.000000" stroke="none" 
	d="
M413.428223,712.625000 
	C414.018677,716.466614 413.618103,720.019836 414.893127,723.051270 
	C416.486847,723.944458 417.563507,723.299622 418.366180,722.497314 
	C424.713409,716.152466 431.203827,709.888672 435.304291,701.743042 
	C436.210876,699.942078 436.921204,698.307556 439.186005,698.795654 
	C444.846313,700.015564 450.216705,702.081665 455.191071,704.006470 
	C455.658508,706.029846 454.716614,706.624146 453.870636,707.047363 
	C443.047333,712.462524 435.772736,722.040100 426.883789,729.738342 
	C414.889954,740.125366 410.668762,753.620178 409.413544,768.580322 
	C409.148163,771.743103 407.759796,772.981689 404.974884,772.080811 
	C398.330872,769.931458 391.762024,767.544250 385.197723,765.157166 
	C382.745087,764.265259 382.450165,762.604004 383.868652,760.435425 
	C386.049042,757.101990 387.951752,753.625122 389.798309,750.074585 
	C394.844208,740.372314 392.953247,730.239380 392.143768,720.265747 
	C391.181824,708.414368 391.846283,696.257446 386.839630,684.978760 
	C386.393158,683.972900 386.300385,682.683411 387.246704,681.688721 
	C388.394684,680.940369 389.554352,681.417786 390.596069,681.824158 
	C397.099182,684.360779 403.577820,686.934265 410.317932,688.830933 
	C413.986603,689.863281 415.836060,691.962097 414.301361,696.294312 
	C412.491364,701.403870 413.441711,706.851685 413.428223,712.625000 
M397.672028,695.242432 
	C396.653778,696.631592 395.950653,698.229492 396.363220,699.893616 
	C397.689209,705.241821 397.141571,710.756104 397.984680,716.141235 
	C398.416840,718.901489 398.132050,721.737427 399.268616,724.433411 
	C400.636902,727.678955 403.274628,726.817993 405.630005,726.560608 
	C407.081787,726.401917 408.893829,725.730347 408.440369,723.796753 
	C406.606537,715.977722 408.360657,708.091919 407.799316,700.251221 
	C407.345093,693.906555 404.079895,691.898499 397.672028,695.242432 
M412.170105,730.041748 
	C409.196381,730.223694 407.988495,731.920593 407.609314,736.449036 
	C413.890076,735.468018 413.890076,735.468018 412.170105,730.041748 
z"/>
<path fill="#000000" opacity="1.000000" stroke="none" 
	d="
M719.514404,593.539551 
	C720.062317,592.671265 720.391357,592.088501 720.787292,591.555420 
	C726.538086,583.812805 726.379700,583.967712 733.075134,590.976746 
	C739.080322,597.263062 746.680359,601.608521 753.631470,606.733704 
	C759.651489,611.172302 765.761597,615.494812 771.936584,619.715393 
	C776.877136,623.092224 781.890076,626.365234 787.843445,627.846863 
	C790.578857,628.527649 792.590759,629.847717 790.344543,633.110107 
	C786.483093,638.718384 782.710938,644.388367 778.829712,649.982727 
	C777.244446,652.267578 775.065796,654.104492 772.986511,650.842896 
	C767.947449,642.938416 759.891479,638.644958 752.649109,633.448364 
	C744.006287,627.246887 735.611450,620.684937 726.522522,615.096069 
	C722.677307,612.731567 718.954102,610.291443 714.493652,609.220520 
	C711.118042,608.410095 709.931641,606.827271 712.443665,603.625244 
	C714.900452,600.493652 717.044983,597.117126 719.514404,593.539551 
M726.777954,597.110107 
	C721.132629,601.086182 721.190979,602.154968 725.604126,606.739746 
	C730.283569,611.601074 736.656006,613.860474 741.784973,618.046814 
	C744.953430,620.632996 746.593262,617.061279 748.350769,614.942444 
	C749.585083,613.454224 750.289246,611.841125 748.305115,610.788330 
	C742.250610,607.575806 737.048706,603.241760 731.918701,598.806274 
	C730.521973,597.598694 728.943665,597.528137 726.777954,597.110107 
z"/>
<path fill="#000000" opacity="1.000000" stroke="none" 
	d="
M356.255798,367.443787 
	C354.220886,356.093384 353.397125,345.184021 357.524170,334.517792 
	C361.238708,324.917725 368.130798,318.125519 376.905457,313.080933 
	C377.884155,312.518250 378.943909,311.872009 380.322113,312.498016 
	C381.817169,314.091583 381.236847,316.190002 381.241089,318.098999 
	C381.284088,337.431427 381.241425,356.764038 381.283020,376.096466 
	C381.287628,378.237457 380.597443,380.812347 384.565704,382.480042 
	C384.565704,376.148773 384.589355,370.439026 384.561188,364.729553 
	C384.481567,348.569641 385.044006,332.395691 383.975342,316.257324 
	C383.625061,310.967499 385.598511,308.159546 390.702606,307.035126 
	C395.736633,305.926178 400.707855,304.520874 405.682983,303.159302 
	C409.641785,302.075836 411.215179,303.524597 411.176208,307.581329 
	C411.054474,320.246338 411.083160,332.912872 411.076538,345.578827 
	C411.069977,358.077332 411.070648,370.575897 411.130249,383.074158 
	C411.136780,384.441986 410.565277,386.155823 412.488342,386.988098 
	C414.529083,385.771271 413.780487,383.741211 413.881073,382.038910 
	C415.317627,357.723938 413.533051,333.407806 413.852020,309.089874 
	C413.947754,301.793762 414.227234,301.318787 421.683594,300.816803 
	C426.002502,300.526001 430.330688,300.283752 434.628418,299.790741 
	C439.462402,299.236176 441.119720,301.272461 441.074921,306.026978 
	C440.888184,325.857727 440.927002,345.690765 440.941376,365.522949 
	C440.942871,367.592224 440.349915,369.815002 442.015717,372.034668 
	C444.495544,370.353729 443.791504,367.858490 443.795074,365.761292 
	C443.828735,346.095917 443.776276,326.430389 443.749664,306.764923 
	C443.740387,299.909058 443.863159,299.773071 450.722778,299.749664 
	C455.555817,299.733185 460.395935,299.922974 465.219910,299.716583 
	C469.154907,299.548248 470.466461,301.156433 470.410797,305.011017 
	C470.244690,316.508087 470.327881,328.009308 470.387665,339.508514 
	C470.396759,341.257019 469.786407,343.175659 471.396729,344.976349 
	C474.260162,344.192139 473.671661,341.754852 473.681183,339.825104 
	C473.737946,328.325928 473.827728,316.824036 473.624969,305.328033 
	C473.553101,301.254639 474.894684,299.553833 479.064240,299.721283 
	C484.388245,299.935120 489.733398,299.890564 495.059570,299.692108 
	C498.851746,299.550812 500.473053,300.856689 500.399353,304.854523 
	C500.208984,315.183990 500.232635,325.520599 500.383118,335.851257 
	C500.431427,339.167328 499.216980,340.812988 495.946014,341.141449 
	C485.976898,342.142487 478.767273,348.490082 472.239227,354.959930 
	C468.531311,358.634827 466.146851,364.000732 463.000610,368.489319 
	C458.794952,374.489197 454.890320,380.787628 450.032990,386.221832 
	C443.405823,393.636078 436.234741,400.776001 426.355988,403.867950 
	C411.588654,408.489990 397.404816,408.350128 382.835052,401.360260 
	C368.068909,394.276215 360.252502,382.918762 356.255798,367.443787 
z"/>
<path fill="#000000" opacity="1.000000" stroke="none" 
	d="
M533.615601,338.604370 
	C533.578857,327.156372 533.695374,316.156586 533.423767,305.166382 
	C533.318787,300.919739 534.941101,299.557678 538.967957,299.716736 
	C544.124329,299.920441 549.305969,299.931976 554.457825,299.663391 
	C558.825684,299.435608 560.298523,301.156219 560.254883,305.476105 
	C560.051453,325.634369 560.049072,345.795013 560.071350,365.954712 
	C560.073853,368.269684 559.317932,370.997620 562.243896,372.957916 
	C564.393066,370.035767 564.051941,366.851898 563.897461,363.827972 
	C562.928162,344.851501 563.030090,325.861115 562.984619,306.871399 
	C562.967712,299.816620 563.083374,299.581451 570.292053,299.898041 
	C575.112244,300.109741 579.916626,300.662048 584.734802,300.946991 
	C588.333130,301.159851 590.222290,302.700226 590.121094,306.543152 
	C589.660950,324.020081 590.786621,341.519440 589.250916,358.985870 
	C588.474365,367.817657 590.539185,376.579956 590.231934,385.417358 
	C590.209717,386.056091 590.538269,386.716766 591.639709,386.940704 
	C593.599426,385.422943 592.778381,383.105255 592.783691,381.136017 
	C592.848389,357.144043 592.835449,333.151825 592.843140,309.159698 
	C592.845276,302.524414 593.190125,302.261444 599.650574,303.540894 
	C604.721619,304.545197 609.669067,305.959778 614.603210,307.503662 
	C618.227966,308.637817 619.484375,310.691559 619.457825,314.456146 
	C619.313843,334.948669 619.376282,355.442688 619.397034,375.936188 
	C619.398987,377.875122 619.059875,379.889404 620.126709,382.095398 
	C623.408569,381.098572 622.705322,378.502167 622.709045,376.443665 
	C622.743774,357.116577 622.697693,337.789368 622.716492,318.462219 
	C622.718384,316.505005 622.270752,314.454773 623.458862,312.560059 
	C625.897644,311.778839 627.529724,313.483978 629.288940,314.591003 
	C646.549988,325.453003 651.330994,341.733337 648.915405,360.860352 
	C647.027283,375.811188 641.152954,388.788574 628.290405,397.597321 
	C609.413147,410.525299 583.025574,410.375763 566.317017,397.959442 
	C556.914551,390.972382 549.371887,382.062653 543.320068,372.024231 
	C539.738098,366.082703 534.415955,361.261414 532.460449,354.220093 
	C531.748230,351.655579 528.002258,352.170135 525.988464,350.211700 
	C521.019958,345.379730 514.977905,342.147125 507.991852,341.125977 
	C504.727692,340.648834 503.595459,338.965424 503.637146,335.712280 
	C503.769470,325.384064 503.769379,315.051178 503.600372,304.723694 
	C503.540283,301.050293 504.914154,299.618713 508.559662,299.728516 
	C514.052917,299.893982 519.560059,299.923218 525.051270,299.727844 
	C528.938599,299.589508 530.352722,301.105591 530.299377,304.997070 
	C530.139648,316.657715 530.222107,328.322296 530.286804,339.984924 
	C530.297852,341.979065 529.622131,344.332764 532.090515,345.781921 
	C534.040894,343.697937 533.375793,341.274902 533.615601,338.604370 
z"/>
<path fill="#000000" opacity="1.000000" stroke="none" 
	d="
M489.902283,414.722656 
	C489.338104,418.613678 489.031494,422.105896 488.331818,425.517517 
	C487.502777,429.559845 485.485260,430.124146 482.554932,427.376770 
	C473.499176,418.886444 472.275879,414.053925 476.643372,402.535675 
	C481.239471,390.414703 485.518127,378.122620 494.212555,368.065796 
	C500.092682,361.264252 502.425537,361.020050 509.444916,366.827240 
	C509.829315,367.145233 510.152466,367.730927 510.564606,367.793488 
	C520.477417,369.298035 520.326355,378.449188 522.074768,384.865906 
	C523.992798,391.905365 526.592834,398.705719 528.532654,405.718781 
	C530.989868,414.602234 528.163391,423.253235 520.497131,428.279785 
	C517.206177,430.437653 515.940002,428.410797 515.497681,425.477814 
	C514.183960,416.766174 513.017334,408.032288 511.689117,399.322968 
	C510.760712,393.235260 509.532837,387.190491 507.497742,381.370117 
	C506.494019,378.499390 506.076904,374.524078 502.135437,374.356415 
	C498.020935,374.181366 497.535583,378.226410 496.599304,381.070892 
	C493.047791,391.860748 491.403259,403.057892 489.902283,414.722656 
z"/>
<path fill="#000000" opacity="1.000000" stroke="none" 
	d="
M513.301147,248.635406 
	C510.491364,246.435364 510.300995,243.443085 510.175293,240.705780 
	C509.910126,234.931412 510.094635,229.136383 510.094635,223.110870 
	C513.338196,223.182205 514.022522,225.697205 515.104126,227.538345 
	C518.850037,233.914688 520.352539,241.172058 522.906189,248.018387 
	C526.752258,258.329559 529.914490,259.771088 540.285645,255.749481 
	C554.901245,250.082001 560.166382,237.364883 553.885925,222.983932 
	C550.809753,215.939957 545.987366,210.350494 539.951050,205.677979 
	C538.322388,204.417328 536.071716,203.690170 535.402954,201.334595 
	C549.133118,199.233276 569.860779,213.802490 572.282898,226.966644 
	C571.524597,227.668167 570.740906,227.256500 569.959473,227.018875 
	C565.180054,225.565536 564.049927,226.259720 563.336365,231.085907 
	C563.312073,231.250473 563.283081,231.416916 563.284302,231.582291 
	C563.443542,253.246384 550.730591,260.525665 532.112732,265.872253 
	C527.684937,267.143829 524.192200,265.726196 522.057068,261.599426 
	C520.763367,259.098938 519.605530,256.504059 518.661560,253.853638 
	C517.753174,251.302979 516.330322,249.482117 513.301147,248.635406 
z"/>
<path fill="#000000" opacity="1.000000" stroke="none" 
	d="
M484.567139,237.669617 
	C488.015411,227.992279 489.270599,225.764557 493.786652,222.078247 
	C494.212158,227.753967 495.756012,233.240707 492.593018,237.333115 
	C488.232391,242.975143 486.576508,249.436478 484.354858,255.818298 
	C480.634949,266.503876 477.422211,268.163239 466.869751,264.429077 
	C458.334473,261.408722 450.028290,257.914398 445.083252,249.596741 
	C438.603058,238.696899 442.712250,228.392761 446.954376,218.115005 
	C447.323608,217.220490 447.773865,216.359436 448.101257,215.663940 
	C447.309814,213.385925 444.568817,214.066666 443.817169,212.166702 
	C446.161804,206.119812 460.566406,199.626465 468.628204,201.179947 
	C467.918823,203.761719 465.475830,204.499130 463.759430,205.827713 
	C455.731750,212.041428 449.980408,219.721512 447.812408,229.805969 
	C444.307465,246.109314 459.015472,257.095703 472.404144,257.682556 
	C475.787476,257.830841 477.694122,255.333862 479.192200,252.565460 
	C481.671722,247.983276 482.684937,242.880310 484.567139,237.669617 
z"/>
<path fill="#000000" opacity="1.000000" stroke="none" 
	d="
M527.106323,562.115234 
	C514.372620,572.424866 500.800964,575.071594 485.847504,568.428406 
	C482.917419,567.126709 480.382294,565.289795 478.047729,563.105774 
	C475.693695,560.903625 472.967316,558.895142 476.652008,554.913452 
	C467.539368,554.431458 466.967651,547.426697 465.958099,541.759216 
	C462.582031,522.807007 476.009613,504.558685 495.139954,501.143555 
	C498.564758,500.532196 500.059021,501.543793 500.217560,505.149628 
	C500.569000,513.144958 500.651215,513.185913 493.015594,515.828491 
	C480.807953,520.053406 474.055878,533.931091 478.554718,545.942017 
	C480.016754,549.845337 483.609344,551.348389 487.118286,549.745911 
	C491.704163,547.651611 495.750092,547.257019 500.294159,549.532410 
	C502.017181,550.395142 504.383148,550.168640 506.116821,549.089600 
	C510.509827,546.355286 513.587402,548.227234 516.888367,551.894653 
	C507.989960,561.539551 498.026367,560.832336 486.411224,554.396057 
	C490.571625,560.371216 498.685974,563.406860 504.891235,562.391846 
	C510.433807,561.485168 515.482910,559.462769 519.677856,555.637207 
	C522.730591,552.853394 524.896606,555.517578 527.165894,556.863892 
	C529.567017,558.288391 528.865967,560.130554 527.106323,562.115234 
z"/>
<path fill="#000000" opacity="1.000000" stroke="none" 
	d="
M524.706116,528.487915 
	C521.277222,521.398987 515.698547,517.520264 508.742004,515.306702 
	C504.501343,513.957397 501.824768,505.467377 504.510315,502.073090 
	C505.518677,500.798584 506.798126,501.050018 508.148682,501.201202 
	C530.823853,503.739319 545.460327,530.273804 535.337769,550.579712 
	C534.409546,552.441711 533.554443,555.004883 530.617493,553.407715 
	C528.040405,552.006287 524.093994,551.456848 525.683899,546.834473 
	C527.783020,540.731750 527.442139,534.727600 524.706116,528.487915 
z"/>
<path fill="#000000" opacity="1.000000" stroke="none" 
	d="
M481.271240,538.200073 
	C482.068634,530.011414 486.215271,524.518250 492.986053,520.964844 
	C495.052032,519.880615 497.912750,517.882324 499.453094,521.057556 
	C500.781128,523.795227 501.475433,527.865417 498.329803,529.697327 
	C493.531616,532.491760 491.814331,536.104126 491.676697,541.469177 
	C491.582001,545.158630 487.831360,546.574524 484.808868,546.823120 
	C481.658386,547.082153 482.048126,543.725403 481.561737,541.575928 
	C481.343475,540.611267 481.338837,539.598328 481.271240,538.200073 
z"/>
<path fill="#000000" opacity="1.000000" stroke="none" 
	d="
M518.445862,526.681885 
	C522.309753,531.220703 522.787903,536.264465 522.181824,541.501892 
	C521.930603,543.673096 522.146729,546.994324 518.913025,546.559631 
	C516.171204,546.191101 512.749268,544.953613 512.622375,541.256165 
	C512.454773,536.371704 510.920776,532.677124 506.363312,530.294922 
	C503.978790,529.048584 502.983307,522.464600 504.410004,520.336304 
	C505.405884,518.850708 506.706360,519.363037 507.973328,519.698120 
	C512.122375,520.795593 515.490112,523.105591 518.445862,526.681885 
z"/>
</svg>